<svg id="Layer_1" data-name="Layer 1" xmlns="http://www.w3.org/2000/svg" viewBox="0 0 1280 1024"><defs><style>.cls-1{fill:#ff8cb7;}.cls-2{font-size:290.54px;letter-spacing:0.03em;}.cls-2,.cls-3{font-family:RockBottom, Rock Bottom;}.cls-3{font-size:290.55px;letter-spacing:0.02em;}</style></defs><path class="cls-1" d="M176.7,516.38c.62,3.66,1.21,7.12,1.21,7.12s.11-.1.17-.15C177.58,520.8,177.13,518.52,176.7,516.38Z"/><path class="cls-1" d="M173.29,509.72c.1.75.17,1.52.29,2.27a1.42,1.42,0,0,1,.09-.46Z"/><path class="cls-1" d="M178.08,523.35c.62-.67.82-3.74,2.14-.26.16,1,.37,2.2.6,3.54l.35,2.09.48,2.17,1.71,7.76c1.24,3.79.76-.17,1.15-.25.85,3.86,1.7,7.72,1.89,7.67.58,1.23.64.74.44-1s-.74-4.64-1.5-8.38c-.73-2-1.52-4.44-2.34-7.06-.44-1.3-.73-2.68-1.09-4.06s-.69-2.8-1-4.2c-1.34-5.6-2.72-11.06-3.37-14.64s-1.25-5.18-1.32-3c0,1.08,0,3.11.25,6.31S177.33,517.6,178.08,523.35Z"/><path class="cls-1" d="M172.24,491.94c.08,1.75.37,3.49.55,5.24l.62,5.24.62,5.24c.24,1.74.36,3.5.69,5.23.81,2.1,1.75,5,1.84,2.78l-.78-3.82c-.23-1.21-.38-2.38-.57-3.49l-1-6.16c-.33-1.89-.66-3.65-1-5.34S172.48,493.56,172.24,491.94Z"/><path class="cls-1" d="M809.76,772.25c0,.11-.21.37-3.3,2.29l3.3-2.29c0-.12-.31-.12,1.15-1.21a374.43,374.43,0,0,1-39.3,24.46l-5,3.24a394.8,394.8,0,0,0,49.67-30.36,330.67,330.67,0,0,0,40.32-34c-4.22,3.81-8,7.45-11.86,10.66l-5.57,4.82c-1.82,1.58-3.72,3-5.55,4.54l-5.55,4.49-5.78,4.38c-2,1.46-3.94,3-6,4.49Z"/><path class="cls-1" d="M764.45,801.19,760.87,803C764.17,801.54,764.48,801.31,764.45,801.19Z"/><path class="cls-1" d="M876.53,208.46a346,346,0,0,0-50.17-43.74,396.78,396.78,0,0,1,50,44.79l10.68,11.85c.9.94,1.69,2,2.51,3l2.43,3q2.43,3,4.79,5.85c3.24,3.78,6,7.75,8.83,11.49s5.59,7.32,7.94,11l-2-3.13c-.69-1-1.45-2-2.17-3L905,243.36l-4.38-6.07c-1.51-2-3.11-3.92-4.66-5.88l-4.68-5.87c-1.56-1.95-3.1-3.94-4.8-5.78Z"/><path class="cls-1" d="M733.73,114l10,4.34c1.65.67,3.2,1.5,4.76,2.25l4.65,2.25,9,4.34q1.13.51,2.19,1.11l2.14,1.15,4.25,2.26,8.32,4.38,2.05,1.07,2,1.16,3.92,2.3,7.76,4.49,3.83,2.21,3.69,2.37A421.36,421.36,0,0,0,740,116.32Z"/><path class="cls-1" d="M764.11,126.69q8.94,4.89,17.31,9.33l15.93,9.38,1.93,1.14,1.87,1.21,3.72,2.42,7.35,4.74,3.65,2.34,3.51,2.49,7,5A381.41,381.41,0,0,0,764.11,126.69Z"/><path class="cls-1" d="M969,587c-.7,2.23-1.37,4.36-2,6.37s-1.43,3.87-2.08,5.65c-1.34,3.56-2.54,6.72-3.6,9.52-.53,1.4-1,2.71-1.5,3.93s-1,2.32-1.48,3.36c-.93,2.06-1.72,3.81-2.39,5.28-1,2.7-2.25,6.3-4.12,11.11.53-1,1-2,1.46-3l6-13.32c.49-1.12,1-2.21,1.47-3.35l1.33-3.42,2.66-6.86q1.34-3.43,2.68-6.88c.87-2.3,1.57-4.67,2.37-7s1.56-4.69,2.33-7.05l1.17-3.53c.39-1.17.8-2.34,1.11-3.55,1-3.93,2-7.78,2.92-11.43l1.32-5.31c.44-1.7.68-3.4,1-5-.36,1.46-.67,2.94-1.08,4.39l-1.28,4.34-2.56,8.67-1.27,4.34c-.4,1.45-1,2.85-1.44,4.27Z"/><path class="cls-1" d="M955.91,621.09c8.25-23-10.49,22.92,0,0Z"/><path class="cls-1" d="M976.91,503.54l.36-2.76c.35-2.64.48-5.39.64-8-.13,1.85-.22,3.65-.37,5.44S977.12,501.73,976.91,503.54Z"/><path class="cls-1" d="M940.85,283.51l5.6,10.76c.45.9.95,1.78,1.38,2.7l1.26,2.75,2.54,5.5,2.54,5.48,1.26,2.74c.41.92.77,1.86,1.15,2.78l4.51,11.13c-11.86-30.66-27.82-60-44.07-82,1.23,1.63,2.27,3.39,3.34,5.14s2.14,3.49,3.25,5.21C926,259,929,263.13,931.86,268l4.54,7.5c.76,1.3,1.54,2.61,2.32,3.93S940.14,282.14,940.85,283.51Z"/><path class="cls-1" d="M942.81,624.38l6.84-15c2.09-5.07,4-10.18,6-15.25l1.49-3.8,1.29-3.87,2.58-7.72c.83-2.58,1.76-5.12,2.5-7.71s1.44-5.2,2.15-7.8,1.43-5.18,2.14-7.76l.53-1.94.43-2,.86-3.92q.87-3.92,1.72-7.81l.86-3.9c.3-1.29.46-2.61.69-3.92q1.3-7.83,2.58-15.62.88-7.84,1.76-15.62c4.51-42.09,1.82-84.19-7.72-123.16a343.7,343.7,0,0,0-18.32-56l-1.36-3.33-.69-1.66c-.23-.55-.5-1.09-.75-1.63q-1.53-3.24-3-6.47t-3-6.42c-.52-1.06-1-2.15-1.54-3.18l-1.67-3.11-6.61-12.31c-2.35-4-4.76-7.9-7.12-11.8-1-1.71-2.07-3.49-3.23-5.24l-3.59-5.33-3.71-5.53-1.9-2.84c-.33-.48-.64-1-1-1.43l-1-1.4c-2.78-3.75-5.63-7.62-8.56-11.57-1.42-2-3-3.91-4.63-5.86L893,226.6a402.08,402.08,0,0,0-45-46.14,396.62,396.62,0,0,0-52.14-37.72l-13-7.56c-4.34-2.28-8.62-4.42-12.76-6.53-2.07-1-4.1-2.09-6.12-3.07l-6.06-2.66-11.46-5c6.11,3.07,12,5.94,17.67,8.72-4.24-1.94-8.39-3.77-12.4-5.55l-5.92-2.6c-2-.79-3.93-1.5-5.84-2.22C643.72,75,533.82,71.51,433.32,107.57c-7.51,2.51-13.81,5.43-20.17,8.16l-4.77,2.07-4.76,2.31c-3.23,1.56-6.57,3.15-10.15,4.81-1.83.81-3.59,1.75-5.35,2.68l-5.28,2.78-5.26,2.76L375,134.52c-.88.46-1.71,1-2.56,1.48l-10.18,6c-1.68,1-3.41,1.94-5,3l-4.92,3.22c0,.07.17,0,.55-.2-3.39,2.22-6.79,4.44-10.17,6.67l-9.83,7.13-4.91,3.57c-1.64,1.18-3.16,2.51-4.75,3.76l-9.44,7.61c-1.61,1.23-3.07,2.63-4.59,4l-4.52,4-4.52,4c-.76.68-1.52,1.33-2.26,2l-2.16,2.13c-5.73,5.7-11.64,11.24-17,17.35l-4.12,4.48L272.51,217c-.7.74-1.38,1.49-2,2.29l-7.77,9.41c-1.29,1.57-2.61,3.13-3.88,4.72l-3.65,4.92-7.33,9.86c-9.22,13.57-18.24,27.49-25.79,42.43-7.5,13.8-13.68,28.24-19.5,42.79l-3.92,11.09-2,5.54c-.59,1.87-1.12,3.75-1.69,5.63L191.67,367c-1,3.78-1.85,7.61-2.79,11.41-.68,2.86-1.25,5-1.74,6.7s-.76,3-1.1,4.21c-.67,2.37-1.27,4.25-2.08,8.1-.43,1.92-.84,3.81-1.25,5.68s-.62,3.74-.93,5.57c-.61,3.68-1.2,7.27-1.79,10.82-.34,1.77-.47,3.55-.69,5.32s-.39,3.54-.59,5.3l-.58,5.29c-.18,1.76-.44,3.53-.5,5.31-.2,3.57-.4,7.17-.61,10.84-.1,1.84-.2,3.69-.3,5.56v5.71c0,3.85,0,7.82,0,11.93q.35,6.15.7,12.79l-.58.05c.32,5.45,1,10.31,1.42,14.3-.53-2.08-1.08-4.58-1.63-7.27-.31-1.34-.5-2.74-.7-4.16s-.41-2.86-.61-4.29c-.77-5.73-1.64-11.31-1.91-14.94s-.74-5.29-1-3.14c-.14,1.08-.27,3.11-.38,6.33s.15,7.6.34,13.42h0c-.25-2.57-.47-4.88-.68-7.09l0-.77,0,.05c-.27-2.73-.55-5.18-.63-7.44s-.29-4.32-.41-6.24c-.26-3.84-.66-7.14-.93-10.44,0,3.52.1,7.05.14,10.57l.09,5.3c0,1.76,0,3.53.19,5.29-.37-1.31-.7-2.17-.92-1.43-.09-.61-.14-1.18-.21-1.86,0-3.14-.1-5.78-.1-5.78a18,18,0,0,0-.5-2.29c-.13-2.32-.28-4.8-.43-7.36-.1-1.28-.07-2.59-.08-3.9V439c0-1.2.11-2.37.15-3.48.42-8.94.6-14.88,0-12.11-.39,2.14-.77,6.62-1.19,12.5l-.15,2.26c0,.78,0,1.58-.06,2.39l-.07,5.1c-.06,3.52-.11,7.27-.17,11.13-.07.94-.11,2-.14,3.11,0-1.27-.09-2.38-.09-3.35V454c0-1.41,0-2.34-.09-2.91-.1-1.15-.28-.9-.47-.39-.37,1-.78,3.05-.68-3.07l.18-6.12.09-3.06.23-3,.95-12.2.23-3c.08-1,.24-2,.36-3l.78-6.07.79-6.07c.28-2,.5-4.05.92-6.05,1.57-8.16,2.81-16.22,4.86-24,1-3.9,1.82-7.79,2.81-11.61s2.21-7.57,3.31-11.32q.83-2.81,1.64-5.61c.57-1.85,1.26-3.67,1.88-5.5l3.8-10.91c.33-.91.62-1.82,1-2.71l1.09-2.67,2.16-5.31c1.45-3.53,2.83-7.09,4.34-10.59a407.27,407.27,0,0,1,47.39-80.4c1.74-2.31,3.37-4.66,5.25-6.83a383.91,383.91,0,0,1,66-64.81l-4.6,4.15a451.14,451.14,0,0,1,62.45-41.3A417.18,417.18,0,0,1,552.3,68.05c1.07-.06,2.14-.17,3.21-.2l3.22-.08,6.42-.16,6.42-.16,3.2-.08,3.2.07c8.53.2,17,.19,25.5.91l6.35.42L613,69l1.58.1,1.58.18,12.64,1.41c2.1.25,4.21.45,6.31.73l6.27,1,12.56,2a446.25,446.25,0,0,1,98.24,30.23A444.47,444.47,0,0,0,670.07,78l-9.63-2.07c-3.2-.68-6.39-1.41-9.61-1.88l-9.59-1.57c-3.18-.49-6.33-1.12-9.5-1.41l2.45.3c.82.1,1.63.26,2.44.39l4.84.81,9.64,1.6c3.21.46,6.36,1.2,9.52,1.85l9.44,2a447.79,447.79,0,0,1,71.41,23.07l8.31,3.46c1.39.54,2.72,1.18,4.05,1.81l4,1.87,7.86,3.67,3.87,1.79c1.29.59,2.51,1.29,3.75,1.91q7.44,3.85,14.49,7.44c1.19.57,2.31,1.24,3.44,1.87l3.36,1.89,6.55,3.63c1.76,1.18,2.62,1.81,3.47,2.41.42.3.85.6,1.38.95s1.19.76,2,1.35l8.92,6.1,4.45,3.05c1.48,1,3,2,4.37,3.12l8.49,6.44,4.21,3.19,2.09,1.59,2,1.67,8,6.6c2.6,2.19,5.28,4.23,7.69,6.51l7.3,6.55,3.57,3.17,1.77,1.55c.58.53,1.13,1.08,1.69,1.62.14-.15,8.8,8.75,6.19,5.51l6.66,6.75,6.51,7.3,6.63,7.44,6.32,7.84Q908,225,911.15,229l5.88,8c1.93,2.67,3.9,5.28,5.76,7.91l5.26,7.9q2.24,3.36,4.49,6.7c.78,1.1,1.44,2.27,2.15,3.41l2.12,3.43,4.27,6.85,2.16,3.42c.7,1.14,1.34,2.33,2,3.5a374.33,374.33,0,0,1,26.92,61.14,390.51,390.51,0,0,1,16.12,65.46c.38,2.81.77,5.63,1.16,8.44l.58,4.24c.18,1.41.42,2.82.51,4.24q.74,8.53,1.48,17.12c.27,5.73.43,11.5.65,17.28.17,2.89,0,5.79,0,8.69s-.09,5.82-.14,8.73a380.72,380.72,0,0,1-8.79,70.62q-1,4.39-2,9c-.18.75-.33,1.52-.54,2.28l-.64,2.26c-.44,1.52-.87,3-1.31,4.57l-2.66,9.27-.67,2.33c-.23.77-.52,1.53-.78,2.3l-1.59,4.61c-2.16,6.13-4.13,12.34-6.68,18.23-1.21,3-2.4,5.91-3.59,8.81-.6,1.45-1.16,2.91-1.79,4.32s-1.31,2.8-2,4.17l1.37-3.07.69-1.53.61-1.58c.81-2.09,1.63-4.19,2.44-6.3s1.64-4.21,2.45-6.32,1.71-4.2,2.37-6.38c2.82-8.64,5.91-17.24,8.15-26.17q.91-3.32,1.82-6.65l.92-3.33.75-3.38q1.49-6.76,3-13.56c.55-2.25.88-4.56,1.27-6.85s.77-4.58,1.16-6.88.77-4.59,1.15-6.89.57-4.64.86-6.95q.88-6.75,1.76-13.41.54-6.69,1.06-13.27c.15-2.2.37-4.38.46-6.56s.11-4.34.16-6.49c.09-4.31.24-8.57.24-12.76s-.27-8.33-.41-12.4c-.08-2-.15-4-.23-6s-.36-4-.53-5.91q-.57-5.85-1.11-11.45c-.15-1.87-.5-3.7-.76-5.51s-.57-3.6-.85-5.36q-.76-4.92-1.52-9.82l-2-9.73c2.05,9.82,3.21,19.78,4.52,29.68q.65,7.49,1.29,14.93c.09,1.24.24,2.48.29,3.72l.14,3.74.27,7.46a367.86,367.86,0,0,1-2.8,59.18A404.61,404.61,0,0,1,974,575.46c.11-.42.21-.81.33-1.25,1.11-4.06,2.24-8.13,3.36-12.21.55-2,1.15-4.07,1.65-6.13s.92-4.14,1.37-6.22q1.38-6.21,2.75-12.45c.7-4.21,1.41-8.41,2.12-12.63.37-2,.73-4,1.1-5.92s.54-3.95.81-5.92q.76-5.93,1.54-11.75c.29-1.94.39-3.89.55-5.82s.3-3.87.44-5.79.29-3.83.43-5.73.33-3.78.33-5.67c.07-3.77.15-7.49.22-11.16,0-1.83.06-3.66.09-5.47s-.11-3.6-.16-5.38c-.15-3.56-.29-7.07-.43-10.51-.1-1.72-.1-3.43-.29-5.11s-.34-3.34-.5-5c-.35-3.28-.69-6.54-1-9.66-.27-3.28-.87-6.54-1.35-9.81s-1-6.53-1.49-9.79a380.42,380.42,0,0,1,4.3,73.43q-.37,5.67-.73,11.33l-.37,5.66c-.07.94-.11,1.89-.2,2.83l-.33,2.81q-.66,5.63-1.31,11.25c-.23,1.87-.39,3.75-.69,5.61l-.94,5.56q-.65,3.48-1.3,7l-.65,3.5c-.23,1.17-.42,2.35-.72,3.5-1.11,4.63-2.23,9.28-3.35,13.92.19-1,.38-2,.55-3,.43-2,1-5,1.42-8.16.23-1.56.49-3.16.65-4.71s.23-3,.3-4.38c.29-5.34.06-8.09-1.34-2.06q-.52,2.92-1.07,5.93c-.41,2-.91,4-1.37,6q-1.41,6.06-2.86,12.29c-1.06,4.12-2.33,8.24-3.49,12.4q-.89,3.1-1.79,6.23c-.27,1-.63,2.07-1,3.09l-1.05,3.07-4.18,12.22-.52,1.51-.59,1.48c-.4,1-.79,2-1.19,2.95-.78,2-1.56,3.91-2.33,5.85s-1.55,3.85-2.31,5.75c-.39.94-.73,1.9-1.15,2.82L955,614.55l-4.89,10.61c-.81,1.71-1.55,3.43-2.37,5.05l-2.5,4.75q-2.44,4.66-4.67,8.88c-.74,1.4-1.44,2.78-2.17,4.08s-1.5,2.53-2.21,3.72l-3.93,6.62c-4.69,8.11-8,12.65-8,12.65-.36.37.25-.73,1.59-2.93.64-1.12,1.57-2.45,2.47-4.12s2-3.53,3.21-5.6l3.88-6.74c.7-1.2,1.41-2.44,2.15-3.7s1.37-2.63,2.08-4l4.31-8.38q1.11-2.13,2.23-4.31c.36-.73.75-1.44,1.1-2.18l1-2.23c1.34-3,2.69-6,4-8.88l2-4.35c.66-1.43,1.31-2.83,1.83-4.27,2.22-5.67,4.29-10.93,6-15.37.45-1.1.81-2.18,1.14-3.21l1-2.88,1.49-4.54a25.26,25.26,0,0,0,1-3.16l-3.12,8.57c-.53,1.43-1,2.87-1.58,4.27l-1.76,4.2c.5-1.35,1-2.69,1.51-4s.87-2.69,1.31-4l2.41-7.71,1.52-4.54c.51-1.56,1.11-3.13,1.54-4.78.94-3.26,1.89-6.59,2.81-9.8.46-1.6.91-3.17,1.34-4.69l.63-2.24c.21-.73.34-1.46.51-2.16.62-2.82,1.15-5.34,1.53-7.36.65-3.53,1.45-7.09,2.09-10.74s1.16-7.37,1.76-11.13l.93-5.67c.33-1.89.47-3.83.72-5.76.46-3.86.92-7.77,1.39-11.7.1-1,.26-2,.32-3l.21-3c.14-2,.27-4,.41-6s.27-4,.41-6l.2-3c.06-1,0-2,.07-3,.08-8.11.39-16.28-.19-24.44-.3-5.1-.44-10.46-1.14-16-.29-2.76-.59-5.57-.89-8.41-.15-1.42-.3-2.85-.46-4.29s-.44-2.87-.65-4.32q-.69-4.34-1.39-8.75c-.48-2.94-.87-5.92-1.55-8.86s-1.25-5.92-1.88-8.9c-.31-1.49-.62-3-.94-4.46-.16-.75-.3-1.49-.48-2.23l-.58-2.21c-.39.08-2.92-11.85-2.39-7.8-.66-2.78-1.26-5.64-2-8.47s-1.61-5.66-2.41-8.48-1.61-5.6-2.39-8.32-1.83-5.32-2.71-7.84l-2.58-7.23c-.42-1.14-.8-2.26-1.23-3.31s-.89-2.06-1.31-3c-1.69-3.87-3.17-7-4.33-9.2l-.63-1.52c-.29-.75-.66-1.65-1.08-2.64s-1-2-1.52-3.14l-5.64-12.51c-.86-2-2-3.92-2.92-5.84L937.7,289l-2.88-5.47-.72-1.35-.78-1.3-1.55-2.59-6.12-10.15c-.52-.83-1-1.68-1.54-2.49l-1.64-2.42-3.28-4.82-3.3-4.83c-1.11-1.61-2.17-3.26-3.4-4.81l-7.25-9.57c-1.25-1.61-2.42-3.3-3.78-4.9s-2.68-3.22-4.06-4.86c-3.72-4.56-7.35-9.27-11.44-13.67L880,209c-1-1.13-2-2.3-3.06-3.4l-3.21-3.3,2.22,2.29c.77.8,1.59,1.63,2.35,2.55l4.87,5.59,4.9,5.57c.78.9,1.58,1.74,2.29,2.6l2,2.47,5,6.08c4.94,5.83,9.23,12,13.71,18,2.28,3,4.27,6.11,6.33,9.19l6.15,9.23c1.93,3.13,3.78,6.3,5.67,9.44l2.81,4.71,1.41,2.36,1.29,2.41,5.14,9.65c.85,1.61,1.72,3.21,2.55,4.83l2.32,4.94,4.43,8.74,1.28,2.89,1.14,3c.26.44.53.93.81,1.45,2.66,6.45,5.57,13.06,7.84,20l3.63,10.28c1,3.49,2.07,7,3.09,10.4.51,1.73,1,3.44,1.53,5.15l.75,2.55.63,2.56q1.25,5.11,2.46,10,.6,2.46,1.2,4.86c.37,1.61.64,3.21,1,4.78.63,3.14,1.24,6.19,1.82,9.11a344.51,344.51,0,0,1,5.24,68.82A367.39,367.39,0,0,1,973.27,538a365.74,365.74,0,0,0,7-66.95,370.29,370.29,0,0,1-9.72,78.33c-.48,1.9-.85,3.82-1.41,5.67l-1.62,5.58-3.41,11.7-4,11.5L964,573.17c1.17-3.58,2.19-7.18,3.28-10.76-1,3.64-2,7.31-3,10.91s-2.36,7.14-3.54,10.7c-2.18,7.17-5.1,14-7.72,20.92l-1.41,3.56c-.46,1.19-1,2.33-1.56,3.5l-3.18,7-3.2,7c-.51,1.18-1.14,2.3-1.72,3.44l-1.79,3.42-3.57,6.83-1.79,3.42-.9,1.72-1,1.66-7.89,13.33c-1.28,2.25-2.72,4.39-4.14,6.56l-4.25,6.5c-2.91,4.29-6,8.49-8.95,12.73l-4.73,6.2-2.37,3.1c-.78,1-1.58,2.06-2.42,3l-5,6-2.48,3-2.58,2.93a393.51,393.51,0,0,1-44.62,43.7,387.39,387.39,0,0,1-50.86,35.89c1.27-1,2.74-2.19,4.39-3.45a393.7,393.7,0,0,0,47.46-34.63,340.24,340.24,0,0,0,37.75-37.58c-1.88,2.16-3.8,4.14-5.64,6.07l-5.35,5.66c-3.56,3.59-7,7-10.4,10.35s-7,6.54-10.68,9.85l-5.76,5c-2,1.7-4,3.44-6.17,5.14-.06-.1-.33-.09,1.07-1.29a366,366,0,0,1-37.6,27.74l6.4-5,6.61-5.47c6.48-4.89,16.16-12.21,25.45-20q15.06-12.67,28.59-26.3c2.25-2.28,4.42-4.63,6.63-6.93l3.29-3.47,3.17-3.57c2.11-2.39,4.24-4.75,6.31-7.15l6.06-7.34A373,373,0,0,0,936,633.27,379.09,379.09,0,0,0,962.69,570q2.4-8.22,4.79-16.42,2-8.31,3.93-16.6l.49-2.07.38-2.09.76-4.19c.5-2.79,1-5.57,1.51-8.35.25-1.39.53-2.78.75-4.18l.54-4.2c.36-2.79.71-5.59,1.07-8.38q-.48,4.17-1,8.29l-.48,4.12c-.18,1.36-.45,2.71-.66,4.07-.94,5.4-1.77,10.78-2.77,16.08q-1.74,7.89-3.47,15.66l-.43,1.94-.53,1.91-1.05,3.82q-1,3.81-2.1,7.59c-1.27,5.08-3.05,10-4.65,14.87-.81,2.46-1.62,4.9-2.43,7.34-.38,1.23-.89,2.41-1.34,3.6l-1.39,3.58c-.93,2.38-1.85,4.75-2.78,7.12s-1.77,4.77-2.86,7.05ZM176.43,402.81c.65-4.05,1.33-8.24,2-12.42l-.48,1.84C177.25,396,176.69,399.84,176.43,402.81Zm26.47-89.45q-2,4.75-4.14,9.85c-1.38,3.41-3,6.88-4.17,10.59l-3.94,11.3c-.33,1-.67,1.92-1,2.89l-.87,3L187,357l-1.75,6.1-.88,3.08-.72,3.14q-1.45,6.29-2.92,12.67c-.54,2.12-.87,4.28-1.25,6.43l-1.15,6.47-1.14,6.47c-.37,2.15-.57,4.33-.86,6.49,0,.21.06.33.11.34q.38-2.71.76-5.51t1-5.61c.7-3.78,1.42-7.65,2.14-11.58.16-1,.4-2,.64-3l.69-3c.47-2,.93-4,1.4-6l1.41-6.06c.22-1,.5-2,.8-3l.87-3q1.72-6.08,3.49-12.22c1.27-4.06,2.72-8.08,4.08-12.13l2.06-6.06c.73-2,1.56-4,2.34-5.94Q200.57,319.2,202.9,313.36ZM264,223.29l-.46.46s.08,0,.1,0ZM705.07,96.41l-12-3.43c-2-.64-4.15-1.07-6.27-1.6l-6.43-1.58c-8.61-2.33-17.79-3.89-27.12-5.86a463.14,463.14,0,0,0-58.82-6.49c-6-.16-12-.1-18.54-.06-3.25.06-6.63.31-10.2.44l-11.32.42-13.66,1.11-3.08.26-1.5.13-1.47.19-5.7.76-11,1.46c-3.64.56-7.33,1.29-11.27,2l6-.76c2-.23,4-.57,6-.69-1.74.15-3.41.47-5.06.72l-4.8.78-9,1.52c-1.45.22-2.86.55-4.25.87l-4.13.93-8.07,1.84-4,.92-4,1.1-8.25,2.23c-5.7,1.38-11.62,3.3-18.33,5.23a8.2,8.2,0,0,1-2.27,1.08c-.69.27-1.51.58-2.39.89l-1.36.46-1.39.52a418.16,418.16,0,0,0-51.46,21.32,404.42,404.42,0,0,0-47.75,28.5l-1.39.93-1.57,1.22-3.75,3c-2.71,2.17-5.81,4.64-9,7-3.81,3-7.53,6.07-11.3,9.09l-2.82,2.27-1.41,1.14-1.36,1.21-5.41,4.82,1-.67c5.78-5.33,12.16-10.14,18.28-15.26,2.26-2,4.73-3.7,7.2-5.55l7.51-5.6c1.28-.92,2.52-1.93,3.85-2.8l4-2.67,8-5.37c2.64-1.85,5.43-3.47,8.18-5.12l8.2-4.92c2.69-1.69,5.48-3.11,8.19-4.57l8-4.29a414.93,414.93,0,0,1,81-31.5A428.31,428.31,0,0,1,550.48,79.7l4.47-.39c1.5-.11,3-.14,4.49-.22l9-.41c6-.4,12-.29,18-.26l6.85,0c2.3,0,4.63.22,7,.32,4.69.28,9.46.49,14.24.85,9.51,1,19.13,1.85,28.27,3.44l6.8,1c1.12.18,2.23.32,3.33.52l3.26.65,12.45,2.41,2.94.55c1,.19,1.91.44,2.84.65l5.42,1.24c3.49.79,6.75,1.5,9.7,2.1l1.65.37,1.89.53,4.23,1.23C700.17,95.18,703.08,96,705.07,96.41Zm45.44,8.47a471.48,471.48,0,0,0-63.23-21.7l-8.15-2.09c-2.71-.69-5.4-1.43-8.13-1.94l-16.16-3.39c-5.37-.93-10.69-1.76-15.91-2.63l-3.9-.65c-1.3-.21-2.6-.32-3.89-.49l-7.67-.92c-4.08-.46-9.09-1.14-14.77-1.4l-8.93-.55L595,68.83c-1.6,0-3.23,0-4.88-.08a388.39,388.39,0,0,0-40.24,1.08l-9.21.86c-2.94.28-5.75.53-8.35,1-5.23.78-9.73,1.5-13.18,2.12a35.71,35.71,0,0,0-6.85,1.67c-1,.42-.66.64,1.39.61a90.23,90.23,0,0,1,9.48-1.9c3.84-.63,8.3-1.38,13.29-2s10.55-1,16.5-1.5l2.25-.19,2.29-.09,4.7-.17,9.78-.33,2.52-.08c.85,0,1.7,0,2.55,0l5.18.08,10.61.18c1.8,0,3.6.16,5.42.27l5.47.36c3.67.25,7.37.47,11.09.76L626,72.73l5.6.65,2.81.33,2.78.46L648.32,76l5.51.91L659.25,78c7.2,1.57,14.32,2.88,21,4.8s13.31,3.36,19.38,5.39L708.56,91c1.43.45,2.85.86,4.23,1.32l4,1.45,14.36,5.1c8.45,3.37,14.79,5.87,18.28,7,1.76.54,2.75.87,3,.72S752,105.82,750.51,104.88ZM974.6,352.41c-.32-1-.63-2.08-.94-3.11l-.48-1.56-.54-1.53c-.72-2-1.45-4.07-2.17-6.11S969,336,968.3,334s-1.41-4.14-2.29-6.17c-1.65-4.1-3.34-8.26-5.07-12.55l-1.3-3.24c-.48-1.06-1-2.14-1.47-3.22l-3-6.62,2.84,6.11c1,2,1.91,4.06,2.72,6.16l5.07,12.49c.41,1,.86,2.07,1.25,3.13l1.11,3.18,2.22,6.36C971.85,343.84,973.42,348.07,974.6,352.41ZM882.37,205.25a362.62,362.62,0,0,1,49.31,64.63A388.92,388.92,0,0,1,966,343.83a360.91,360.91,0,0,1,14.75,61.1,513.72,513.72,0,0,1,4.82,59.67h.59l-.1-4.1c-.14-7.2-.11-13.72-.26-19.94-.36-6.21-.66-12.14-1.08-18.18.12.68.16,1.42.24,2.11-.06-.61-.11-1.21-.16-1.82s-.17-1.2-.25-1.81c-1-8-1.71-16.39-3.74-25.85-.43-2.17-.87-4.35-1.3-6.56-.23-1.1-.42-2.2-.68-3.3l-.82-3.29a373.88,373.88,0,0,0-24.25-73.15A359.48,359.48,0,0,0,917,245.33l-6.34-8.43-3.12-4.11-.77-1-.82-1-1.64-1.95-6.49-7.69-3.22-3.81c-1.09-1.24-2.25-2.43-3.37-3.65-9-9.77-18.29-19.16-28.85-28.71,1.48,1.39,3.18,2.92,4.88,4.62l5.2,5.4,5.23,5.38,2.47,2.5C881,203.69,881.67,204.51,882.37,205.25Z"/><path class="cls-1" d="M969.57,554.57l-3.51,12.71c-.62,2.11-1.12,4.27-1.83,6.36s-1.39,4.19-2.1,6.28l-2.1,6.3L959,589.38l-.53,1.58-.61,1.55q-2.45,6.19-4.9,12.43c-.64,1.6-1.21,3.23-1.9,4.8l-2.11,4.71-4.2,9.4c-1.34,3.17-3,6.19-4.51,9.24l-4.66,9.16L934.14,645l-1.56,2.67L929.44,653l-3.19,5.43-1.6,2.72-.81,1.37-.86,1.34q-3.5,5.33-7,10.75l-7.52,10.65a385.9,385.9,0,0,1-34.52,40.77,399.38,399.38,0,0,1-40.49,36.27,420.06,420.06,0,0,1-44.34,30.25c-1.5,1.56-1.42,2.19,1.08,1.41a389.78,389.78,0,0,0,90.05-71.33,399.87,399.87,0,0,0,36.27-44.72c1.43-1.94,2.74-4,4.06-6l4-6c1.37-2,2.57-4.06,3.82-6.11l3.72-6.17,3.73-6.16c.64-1,1.19-2.08,1.76-3.14l1.71-3.17,6.83-12.68c.23-.55.48-1.11.71-1.66a484.43,484.43,0,0,0,21.56-56.47c1.52-5.42,3.13-10.89,4.6-16.39,1.25-5.55,2.51-11.11,3.75-16.6.34-1.36.54-2.75.78-4.13l.69-4.12q.69-4.11,1.36-8.13c.22-1.34.44-2.67.65-4s.3-2.66.44-4c.28-2.62.56-5.21.84-7.75s.54-5.08.74-7.63l.39-7.65.41-7.64c.05-1.28.18-2.55.17-3.83l0-3.82c0-5.1.11-10.2,0-15.29l-.65-15.27a378.16,378.16,0,0,0-8.81-60.27l.6,2.68.48,2.7,1,5.39c.63,3.59,1.31,7.16,1.88,10.74s.92,7.18,1.38,10.76,1,7.15,1.19,10.74.56,7.17.83,10.74c.12,1.79.34,3.57.36,5.36l.15,5.36q.14,5.35.29,10.71c.09,1.78,0,3.57-.06,5.35l-.12,5.35A357.89,357.89,0,0,1,969.57,554.57Z"/><path class="cls-1" d="M802.28,149.67c6.42,4.38,13,8.54,19.18,13.36l9.42,7,9.09,7.5,6.3,5.19,6,5.42,5.9,5.35c1,.9,2,1.74,2.9,2.68L863.8,199c3.67,3.71,7.38,7.31,10.93,11L885,221.29a413.33,413.33,0,0,1,35.84,47.93,390.52,390.52,0,0,0-54.51-69.42c-5.11-5.4-10.58-10-15.73-14.7l-3.87-3.45-4-3.2-7.89-6.29c-1.31-1-2.58-2.1-3.92-3.06l-4-2.88-8-5.72c-1.34-.94-2.64-1.93-4-2.82L810.63,155Z"/><path class="cls-1" d="M936.9,297.35c-1.29-2.41-2.58-4.82-3.87-7.21l-1.92-3.58c-.63-1.2-1.26-2.39-2-3.54l-8.31-13.8a379.06,379.06,0,0,1,47.46,119.94l2.46,13,.62,3.27c.18,1.09.31,2.19.46,3.29l.91,6.58c1.4,8.76,1.89,17.61,2.71,26.45l.49,13.29c.05,2.21.22,4.43.18,6.65l-.1,6.65-.1,6.66,0,3.33c0,1.11-.13,2.21-.19,3.32L974.79,495c-.1,2.22-.39,4.42-.65,6.63l-.78,6.62-.77,6.62c-.25,2.21-.71,4.38-1.06,6.58l-2.23,13.15-2.9,13-.73,3.26c-.24,1.08-.47,2.17-.79,3.24l-1.78,6.43L961.32,567c-.6,2.15-1.15,4.31-1.9,6.4l-4.23,12.68-1.05,3.17-1.22,3.11-2.43,6.23-2.22,5.64L947.16,607c-.39.93-.83,1.84-1.24,2.75l-5,10.94,5.31-11.25c.93-1.86,1.69-3.79,2.47-5.71l2.36-5.76,2.36-5.76,1.17-2.87,1-2.94q2.05-5.86,4.1-11.72l1-2.93c.33-1,.59-2,.89-3l1.74-5.95,1.74-6c.57-2,1.19-3.95,1.62-6,1.84-8,4-16,5.28-24.12l1.1-6,.55-3,.27-1.51.2-1.53q.78-6.09,1.57-12.16l.39-3c.14-1,.27-2,.33-3,.15-2,.31-4.07.46-6.1.29-4.06.67-8.1.89-12.15s.2-8.11.3-12.15c0-2,.13-4,.11-6.05s-.1-4-.16-6l-.33-12q-.47-6-.94-11.95-.22-3-.47-6c-.22-2-.5-3.94-.75-5.91q-.76-5.89-1.53-11.76c-.62-3.9-1.39-7.76-2.08-11.62s-1.34-7.71-2.32-11.49-1.79-7.57-2.68-11.33l-.68-2.82-.81-2.78c-.54-1.85-1.07-3.7-1.61-5.55s-1.08-3.68-1.61-5.52-1-3.69-1.7-5.48q-1.89-5.4-3.75-10.77a351.1,351.1,0,0,0-39.51-78l-3.66-5.41a377.18,377.18,0,0,1,58.34,146.44l-2.58-13.64c-1-4.51-2.15-9-3.21-13.49l-.81-3.37c-.27-1.13-.54-2.25-.89-3.35l-2-6.65-2-6.65c-.33-1.1-.63-2.22-1-3.31l-1.15-3.27-4.58-13.07c-1.69-4.3-3.48-8.55-5.21-12.83l-1.31-3.2-.65-1.6-.73-1.57L943,309.78,940,303.52c-.49-1-1-2.09-1.48-3.12Z"/><path class="cls-1" d="M973.27,538c-.91,3.82-1.8,7.59-2.7,11.38-.88,4.46-2.17,8.73-3.33,13l2.33-7.84C970.86,549,972.05,543.48,973.27,538Z"/><path class="cls-1" d="M984.75,422.39l-.17-1.52q-.65-4.83-1.3-9.71c-.22-1.62-.44-3.25-.65-4.88-.12-.81-.21-1.63-.35-2.44l-.44-2.43c-.6-3.25-1.2-6.5-1.81-9.77l-.9-4.9c-.26-1.64-.73-3.24-1.09-4.87l-3.36-13.52c-1.24-4.52-2.68-9-4-13.61l-1-3.44c-.35-1.15-.67-2.3-1.1-3.43-.8-2.26-1.6-4.54-2.4-6.82l-2.42-6.87c-.41-1.14-.78-2.31-1.24-3.44l-1.38-3.39c1.74,4.08,3,8.31,4.52,12.47.72,2.09,1.43,4.17,2.15,6.24.35,1,.71,2.08,1.07,3.11s.61,2.1.91,3.14q1.83,6.29,3.62,12.44c.29,1,.62,2.05.87,3.08s.49,2.06.74,3.09q.74,3.07,1.46,6.12l1.46,6c.23,1,.5,2,.69,3l.57,3q1.14,5.94,2.24,11.64c.82,3.78,1.22,7.53,1.79,11.16S984.25,419,984.75,422.39Z"/><path class="cls-1" d="M960.74,310.58c-1.71-3.8-5.13-11.36-6.85-15.18l-.87-1.68-.94-1.65-1.89-3.28c.89,1.73,1.77,3.47,2.66,5.22l2.41,5.37Z"/><path class="cls-1" d="M801.15,130.39,807,133.9l5.68,3.77L824,145.2c3.65,2.63,7.23,5.34,10.83,8l5.38,4c1.79,1.34,3.47,2.81,5.2,4.2q5.14,4.25,10.28,8.45c.87.69,1.68,1.44,2.49,2.18l2.45,2.23,4.9,4.44,4.87,4.43,1.22,1.11,1.16,1.17,2.32,2.32,9.25,9.29c11.89,12.74,23.29,25.8,33.3,39.8l3.82,5.2c.63.87,1.3,1.71,1.89,2.61l1.77,2.68L932.2,258c.58.9,1.2,1.78,1.75,2.69l1.64,2.76,3.27,5.53,3.28,5.52c.53.92,1.1,1.83,1.62,2.76l1.49,2.84c1.65,2.88,3.3,5.78,4.94,8.66a357.24,357.24,0,0,0-35.84-58,375.93,375.93,0,0,0-43.81-48.35c-3.09-2.75-7-6.13-10.93-9.52l-2.91-2.53-3-2.35c-1.92-1.53-3.72-3-5.3-4.33-7.38-6.42-15.3-12-22.94-17.73-3.92-2.75-7.92-5.33-11.85-8L807.75,134c-2-1.25-4-2.43-6.06-3.64l-12.09-7.17-12.36-6.54-6.17-3.25c-2.08-1-4.2-2-6.3-3l-12.59-5.86,12,5.69,6,2.85c2,1,4,2.1,5.93,3.14q5.92,3.18,11.91,6.36c3.95,2.22,7.8,4.63,11.74,7Z"/><text class="cls-2" transform="translate(90.95 385.59) scale(1.05 1)">Krafty</text><text class="cls-3" transform="translate(565.42 583.52) scale(1.05 1)">Artistry</text><path d="M446.12,792.46s0,0,0,.08l.06-.11Z"/><path d="M469.09,784.86H469l.14,0Z"/><path d="M154.58,525.6a8.69,8.69,0,0,0-.31,2.6c.21,2.85.35,5.74.81,8.51A106.11,106.11,0,0,0,160,554.44c4.43,12.8,11.21,23.7,20.72,32.37a10.53,10.53,0,0,1,2.17,3.08c3.15,6.18,6.34,12.33,9.5,18.49.22.42.64.76.27,1.56a11.5,11.5,0,0,1-1.44-.76,94.18,94.18,0,0,0-15-9c-5.9-2.84-11.87-5.49-18.4-7a68.86,68.86,0,0,0-12.56-2,26.9,26.9,0,0,0-4.88.28,3.88,3.88,0,0,0-3,1.73c.24,1.87.18,2,1.16,2.57,1.3.81,2.69,1.47,4,2.21,2.34,1.32,4.77,2.5,7,4a109.61,109.61,0,0,0,10.34,6.73c2.81,1.47,5.54,3.17,8.59,4.08A49.6,49.6,0,0,0,186.61,615a22.2,22.2,0,0,1,11,1.9c2,2.53,3.92,5.08,5.93,7.55s4,4.72,6,7.06,4.15,4.83,6.28,7.19,4.6,4,7.08,6.74c-2.71-.82-4.86-1.42-7-2.1-12.72-4.08-26.21-4.47-40.28-2-3.59.64-7.19,1.63-10.78,2.52a17.7,17.7,0,0,0-3,1.12,6,6,0,0,0-1.19,1c.41,1.64.38,1.7.9,1.93a25,25,0,0,0,4.27,1.74c3,.71,6.19,1.17,9.29,1.74,4.84.9,9.74,1.63,14.5,2.74s9.36,2.11,14.16,2.84a33.11,33.11,0,0,0,11.84-.36c2.57-.54,5.13-1.29,7.7-1.87,2.16-.48,4.32-.94,6.47-1.22a8,8,0,0,1,6.08,1.69c1.13.88,2.35,1.64,3.54,2.45,3.38,2.33,6.78,4.66,10.15,7,.34.23.86.46.38,1.3-.66,0-1.35-.08-2-.1-2.62,0-5.23-.26-7.87-.09a155.3,155.3,0,0,0-40.62,8.27c-2.33.8-4.65,1.8-6.94,2.84a23.32,23.32,0,0,0-3.74,2.2,3.56,3.56,0,0,0-1.87,2.92,1.59,1.59,0,0,0,1.6,1.22,23.13,23.13,0,0,0,3.33,0c3-.32,6-.63,8.93-1.13a164.18,164.18,0,0,1,20.91-2.22A54.91,54.91,0,0,0,237,677.1c3.06-1,6.12-2,9.18-3a25.06,25.06,0,0,1,8.9-1.22,16.92,16.92,0,0,1,1.79.31c-1.33,3.79.58,6.29,1.32,8.71-.89,2.72-1.61,5-2.36,7.25-.8.38-1.59.76-2.38,1.12s-1.81.76-2.7,1.21c-7.94,4.05-14.58,10.14-20.62,17.06a16.92,16.92,0,0,0-3.94,8.3l.75.64c.29,0,.4,0,.49,0,.67-.38,1.34-.79,2-1.18,5.69-3.28,11.35-6.64,17.37-8.88,3.34-1.24,6.64-2.72,10-4.08.69-.28,1.4-.5,2.17-.78a26.52,26.52,0,0,1,5,12.21,12.36,12.36,0,0,0,4.13,8c.41.38.77.83,1.12,1.2-1.19,3.7-.08,6.3,2.14,8.23a8,8,0,0,0,8.37,1.8c4.27,5.56,8.25,11.31,14.18,15-.23.19-.33.31-.4.32-.91,0-1.83.06-2.72,0a293.06,293.06,0,0,1-29.8-3.86c-2.23-.38-4.41-.94-6.62-1.41a4.19,4.19,0,0,1-3-2.07c-1.48-2.67-3-5.32-4.45-8a5.45,5.45,0,0,1-.31-1.5c3.3-3.55,4-7.36,2.51-11-1.25-3.11-4-4-7.3-3.39-2.05-1-2.05-1-3.65-.65-1,1.86-1.14,2.08-.94,3.09a9.27,9.27,0,0,1-.09,3.19c-.62,4.6,1.66,8.28,5.69,9.31.65.16,1.31.28,1.74.37,1.79,3,3.45,5.77,5.1,8.56a.62.62,0,0,1,0,.31,2,2,0,0,1-.12.26c-5-.12-16.23-5-22.21-8.14.06-1.15,0-2.33.19-3.52.4-3.14-.94-5.14-3.28-6.15-3.56-1.54-7.34-2.18-11.14,1.25-1.35.53-2.58-.32-3.89,1a3.9,3.9,0,0,0-.33,3.49l1.53.63c0,1.12,0,2.1.1,3,.5,4,3.3,8.74,9.06,8.24a7.92,7.92,0,0,0,5.91-3.2c.33-.43.69-.84,1.12-1.35,3.68,1.55,7.15,3.19,10.78,4.5s7.55,2.33,11.8,3.61l-10.37,4.33c-3.12-.78-3.75-.75-6.46.33a8.57,8.57,0,0,0-5.5,7.14c-.11.86-.09,1.72-.12,2.39a30.54,30.54,0,0,0-.88,3.07c-.15.77,0,1.52.95,1.78l2.72-1.3c.68.35,1.26.69,1.86,1,3.78,1.8,8-.74,9.21-5.52a11.58,11.58,0,0,0,.11-5.45c-.15-.69-.36-1.35-.53-2,2.27-1.91,6.63-4,11.3-5.34,3.11.6,6.17,1.3,9.29,1.79,9.18,1.43,18.43,2.64,27.83,3.24.53,0,1.25-.25,1.41.7-1.91.77-3.84,1.44-5.71,2.31s-3.7,2-5.48,2.91c-6-1.78-15.26,5.5-14.56,13.17-.62,1.42-1.88,2.93-.9,4.43,1.43.6,2.39-1,3.75-1.35,3.71.51,7.17-1.22,10.28-4.24,2.74-2.65,4.36-5.68,3.31-9.27-.05-.16.09-.41.18-.83.95-.55,2-1.26,3.05-1.77a43.19,43.19,0,0,1,13.09-4.27,55.16,55.16,0,0,1,11.29-.53,28.41,28.41,0,0,0,3.33,0l14.93-.32a7.45,7.45,0,0,1,3.78.57l-3.24,1.2c-6,2.19-12,4.41-17.17,9a14.15,14.15,0,0,0-6.49,1.52c-3.55,2-6.33,5-5.63,10.14a4.59,4.59,0,0,1,0,.64,26.69,26.69,0,0,0-.95,3.19,3.8,3.8,0,0,0,.29,1.53c1.67.49,2.76-1,4-1.39,4.11.18,6.51-.68,9.45-3.36,3.53-3.21,4.34-7,2.26-10.53-.19-.32-.33-.67-.55-1.11a16.45,16.45,0,0,1,1.85-1.65c1.79-1.14,3.6-2.29,5.45-3.26a120.59,120.59,0,0,1,12.35-5.13c3.65-1.42,6.67-.72,9.66.52.21.08.3.43.57.84l-2.09,1.09c-3,1.56-6.11,3-9.12,4.69a31.37,31.37,0,0,0-7.63,6.23,20.22,20.22,0,0,0-4.93,8.94,23.22,23.22,0,0,0-.72,6.52c.24,7.37,2.29,13.73,6.76,18.74.28.31.8.58.49,1.2-3.62,1.24-7.21,2.28-10.71,3.71a64.6,64.6,0,0,0-28.1,21.64c-2.67,3.62-5.2,7.37-7.59,11.18-1.53,2.43-2.72,5.06-4,7.63-.63,1.28-1,2.57-.13,3.69a3.78,3.78,0,0,0,1,.51,19.39,19.39,0,0,0,2.65.34,111.18,111.18,0,0,0,20.42-.65,81.44,81.44,0,0,0,9.87-1.92c4.07-1.1,14-6.16,18-9.23l.12,0a8.49,8.49,0,0,1-.32,1,97.49,97.49,0,0,0-7.06,18.13c-1.33,4.77-2.63,9.55-3.94,14.32-.95,3.47-1.86,7-2.83,10.42-.38,1.36-.59,2.62.33,3.6a4.81,4.81,0,0,0,3.28-.06,29.48,29.48,0,0,0,3.68-1.15,272.58,272.58,0,0,0,26.86-12.39,81.55,81.55,0,0,0,24.47-19.79c3.71-4.44,7.1-9.1,10.45-13.81,2.34-3.29,4.66-6.55,7.88-9.07a27.21,27.21,0,0,0,6.23-7.79,12.33,12.33,0,0,0,1.44-3.45c.85-3.6,1.64-7.22.57-10.59a14,14,0,0,1-.42-2.79,20.5,20.5,0,0,0-1.36-5.69c-.12-.28-.5-.65.08-1,1.67,1.76,3.22,3.62,5,5.2s3.78,2.82,5.74,4.25c-1.06,2.88-2.07,5.65-3.1,8.41s-1.36,5.65-2.57,8.34c-.55.37-1,.7-1.48,1a37.09,37.09,0,0,0-9.65,9.66c-3.09,4.31-4.59,9.18-6.75,13.81a5.4,5.4,0,0,0-.27,1.22c.21,1.5.69,2.65,2.14,3.2l2-1.49c.56.06,1,.19,1,1a26.09,26.09,0,0,1-7.14,7.06,15.54,15.54,0,0,0-11.89,4.47,17.69,17.69,0,0,0-5.9,12.6c-1.32,1-2.23,2.21-2.07,3.75.17,1.7.6,3.29,2.45,3.84l2.3-1c.52.49,1,1,1.48,1.41,2.07,1.86,4.57,2,7.34.42a19,19,0,0,0,3.79-2.82,26.27,26.27,0,0,0,6.82-12.16,8.28,8.28,0,0,0-.35-5.91c-.42-.88-.72-1.84-1.05-2.67,2.94-3.35,5.73-6.54,8.51-9.73,1.58-.36,2.93-1.6,4.64-1.73-.08,1.88-.15,3.59-.21,5.27-.4.29-.66.52-.94.68a12.11,12.11,0,0,0-5.53,6.75A17.38,17.38,0,0,0,390,877a11.83,11.83,0,0,0,5.06,6.12c-.17,1.12-.32,2.1-.46,3.05.26,1,.47,2.07,1.37,2.59a2.94,2.94,0,0,0,.79.12c2.13-2,1.6-4.95,3-7.24,4.29-4.46,5.94-9.48,5.2-15-.11-.83-.31-1.63-.41-2.47-.42-3.54-1.69-6.32-5.13-7.18a25.36,25.36,0,0,1,0-7.68c4.51-4.81,5.21-5.93,7.92-12.51a28,28,0,0,1,3.33-5.65,79.78,79.78,0,0,0,5-7.47,85.82,85.82,0,0,0,5.49-11.85,26.52,26.52,0,0,1,1.22-2.54c1.39-.54,2.52-.92,3.61-1.42a31.19,31.19,0,0,0,3.23-1.7,38.7,38.7,0,0,0,3.32-2.31c1-.76,1.91-1.64,2.87-2.44s1.51-1.84,2.91-2.43c-.87,1.5-1.54,2.71-2.26,3.88-4.29,6.92-8,14.05-10,21.78q-3.36,12.71-6.68,25.42a23.32,23.32,0,0,0-.48,2.29,6.34,6.34,0,0,0-.08,1.62c.08.77.39,1.38,1.41,1.17a10,10,0,0,0,2.41-2.78,211.58,211.58,0,0,0,12.09-19.8c1.9-3.43,3.71-6.91,5.36-10.44a72.32,72.32,0,0,0,6.35-27.25,13.32,13.32,0,0,0-.26-2.36,7,7,0,0,0-.57,3.11,90.36,90.36,0,0,1-3.63,18A62.12,62.12,0,0,1,437,824.94c-3.8,6.72-7.77,13.36-11.72,20-.75,1.28-1.69,2.46-2.54,3.68-.76-.32-.41-.93-.29-1.36,1.9-6.72,3.85-13.43,5.73-20.15a79.19,79.19,0,0,1,10-21.41c.81-1.25,1.65-2.5,2.49-3.76.71.41.23,1.12.13,1.68-.94,5-1.92,10-2.85,15.07a16.72,16.72,0,0,0-.12,2.19c.89-.57.87-1.29,1.06-1.91a212.76,212.76,0,0,0,6.05-25.8c.11-.64.34-1.29.51-1.93v.09a8.34,8.34,0,0,1-.08-1.5c0-.14.45-.32.69-.49a9.61,9.61,0,0,1,0-2.21c.11-.53.27-1.34,1.23-1.46l.65,2c.8,2.41,1.45,4.9,2.42,7.2,1.63,3.87,3.47,7.61,5.2,11.42.45,1,1.18,1.79,1.23,3.14-.54.59-1.07,1.18-1.61,1.75a128.47,128.47,0,0,0-9.85,11.59,152,152,0,0,0-11.95,19,16.68,16.68,0,0,0-1.75,5.13,2.07,2.07,0,0,0,.77,2.29c1.08,0,2.3,0,3.47.18a19.11,19.11,0,0,1,3.72.82c1.06.37,2.37.26,3.26,1.17a23.54,23.54,0,0,1-.67,2.34,90.18,90.18,0,0,0-5.47,20.79,94.93,94.93,0,0,1-2.91,13.4,23.57,23.57,0,0,0-.68,2.94,1.62,1.62,0,0,0,1,2,3.69,3.69,0,0,0,1-.59,99.93,99.93,0,0,0,9.19-10.78,129.79,129.79,0,0,0,7.43-12.09c1.82-3.33,3.43-6.76,5-10.2,1.17-2.59,2.11-5.26,3.12-7.8,5.27-1.84,9.43-2.89,11.55-2.87a18.65,18.65,0,0,1-.72,1.87,41.2,41.2,0,0,0-3.18,8.28,141,141,0,0,0-4.27,20.93c-.34,3.05-.82,6.11-1.41,9.16s-1.41,6.1-2.11,9.15a36.45,36.45,0,0,0-.79,3.93c-.15,1.2-.08,2.4,1.17,2.9,1.5-.17,2.38-1.5,3.33-2.61a46.69,46.69,0,0,0,8.49-14.9,178.22,178.22,0,0,0,9.07-38.78c.05-.39,0-.9.76-1.12.68,1.07,1.44,2.19,2.11,3.37q2.91,5.13,5.78,10.3a7,7,0,0,1,.64,5.19c-.47,2-.9,3.93-1.51,5.86-1.41,4.38-4.07,8.2-6.57,12.09-2.06,3.2-4.13,6.41-6,9.69a32.23,32.23,0,0,0-4.34,12.76c-.25,2.18-.39,4.35-.5,6.52-.17,3.36-.29,6.72-1.51,10.1a2.6,2.6,0,0,0-.15,1c0,.64.17,1.27,1.11,1.24a6.68,6.68,0,0,0,.91-.78,140.26,140.26,0,0,0,10.74-14,54.4,54.4,0,0,0,5.3-9.67,90.82,90.82,0,0,0,4.82-17.53,41.56,41.56,0,0,0,.38-13.86,5.6,5.6,0,0,1,.16-1.15,49.82,49.82,0,0,1,5.67,16.93,47.66,47.66,0,0,1-2.44,8.12c-.6,1.6-1.22,3.2-1.74,4.81-1.93,6-1.6,11.74-.69,17.34a15.78,15.78,0,0,0,5.15,9.83,45.84,45.84,0,0,0,6,4.37,76.57,76.57,0,0,0,7,3.44,10,10,0,0,0,1.79.47l.73-1.66-1.87-3.06c-2-3.28-3.93-6.56-5.93-9.82a27.77,27.77,0,0,1-3.9-16.91,49.52,49.52,0,0,0-.5-10.51c-.31-2.28-.44-4.62-.73-6.9a16.74,16.74,0,0,0-.69-2.66c-.95-3.12-1.92-6.22-2.86-9.34a1.31,1.31,0,0,1,.08-.56,12.48,12.48,0,0,1,1.79,1.31,73,73,0,0,0,9.29,8.13,91.3,91.3,0,0,0,7.93,5.17c3.64,2.08,7.83,1.52,12.12,0a2.8,2.8,0,0,0,2.15-2.39,4,4,0,0,0-1.79-2.17,72.74,72.74,0,0,1-10.39-9.93,26.41,26.41,0,0,0-2.89-2.81c-3.62-3-7.75-4.89-13-4.15a9.85,9.85,0,0,1-3.56-.22c-2-.45-3.94-1.1-5.72-1.61-.29-.44-.48-.66-.61-.92-2-3.77-4-7.53-5.92-11.31-.09-.18,0-.51.07-1a29.42,29.42,0,0,0,2.83,1.72,34.67,34.67,0,0,0,19.77,2.88,22.37,22.37,0,0,0,7.29-2.49,2.83,2.83,0,0,0,1.66-1.83c-.49-2.08-2.18-3.27-3.49-4.76s-2.85-3.15-4.38-4.6a39.57,39.57,0,0,0-4.58-3.91c-1.67-1.16-3.55-2-5.4-3.08a8.74,8.74,0,0,1,.85-.93A60.59,60.59,0,0,0,514.41,821a5.56,5.56,0,0,1,1.13-.84c0,.68.05,1.1.05,1.51,0,2.05-.21,4.14-.07,6.14a69.16,69.16,0,0,0,6.27,24.32c2.47,5.37,6,9.88,9.57,14.35A52.18,52.18,0,0,0,552,882.17c.68.29,1.32.69,2.11,1.11-.61,1.52-1.13,2.89-1.72,4.23a20.1,20.1,0,0,1-1.08,1.88c-.69.16-1.41.28-2.12.49a6,6,0,0,0-4.59,5.92,13.9,13.9,0,0,0,.27,2.82c.11.71.32,1.39.48,2.06-.75,1.36-1.07,2.85-2.37,3.88-2.88-.65-5.74-1.6-8.8.88a8.06,8.06,0,0,0-1.65,7.8c.23.88.65,1.68,1,2.54a2,2,0,0,1,0,.63l-1.05,1.12a3.4,3.4,0,0,0,.3,2.9c.54.82,1.07,1.65,2,1.65,1.43-.12,1.81-1.51,2.71-2.18,1,.19,1.91.45,2.89.55a5,5,0,0,0,4.87-2.73,9.38,9.38,0,0,0,1.17-8.18c-.32-.95-.71-1.87-1.12-2.92.49-1,1-2,1.49-3,.08-.16.33-.25.56-.41l1.89,1c-.1,2.29.64,3.73,2.59,4.15,1.51-1.3,1.51-1.3,1.93-4.1,4.26-3.3,5.48-6.81,3.28-11.15.12-.71.28-1.48.37-2.24s.07-1.52.15-2.28-.32-1.39.31-2.23a3.92,3.92,0,0,1,.56.68c2.69,6,5.4,12,8,18a6.5,6.5,0,0,1,.54,2.69c-.05,2.91-.2,5.84-.4,8.77a7.55,7.55,0,0,1-.89,3.69,8.46,8.46,0,0,0-1.63-.48,17.1,17.1,0,0,0-3.58-.2,7.67,7.67,0,0,0-6.44,9.2,12.24,12.24,0,0,0,1.83,3.71,34.93,34.93,0,0,0,2.82,3.22c-.09,3.07.25,3.64,2.54,4.32,1.42-.68,1.39-2.28,2.17-3.36.3-.18.58-.37.87-.52a8.66,8.66,0,0,0,4.65-6.74c.52-3.06.29-5.85-1.31-7.74.18-4,.34-7.71.53-11.39,0-.22.21-.46.45-.93,1.33,2.37,2.49,4.54,3.74,6.64s2.43,4,3.76,6,2.85,4,4.4,5.79,3.23,3.5,4.93,5.32c-3.08,3.74-4.51,7.63-2.81,11.45,1.86,4.21,5.29,6,10.07,4.82,1,.82,1.23,2.29,2.67,2.24,1.56-1.26,1.88-1.93,1.47-3.27a9.34,9.34,0,0,0-.7-1.49c.41-.77.77-1.37,1-2a8.87,8.87,0,0,0,0-8.06c-1.57-3.08-4.26-4.34-7.65-4.46-.89,0-1.82.09-2.72.13-5.94-7.84-12.17-15.35-16.57-24.79,3.25,2.18,6.19,4.25,9.23,6.15s6.28,3.68,9.46,5.54c.15.48.3,1,.46,1.44a9.17,9.17,0,0,0,2.33,3.7,6.73,6.73,0,0,0,6.23,1.88c2.08-.35,3.31-2.07,4.5-3.83.83.08,1.65.71,2.79-.64a3.85,3.85,0,0,0,.43-3c-.45-.1-1-.26-1.55-.33s-1.17,0-1.64,0c-2.73-5.68-6.67-6.11-13-1.49-.64-.26-1.39-.49-2.06-.84-2.8-1.48-5.56-3-8.36-4.5a55.57,55.57,0,0,1-9.15-6.43,10.49,10.49,0,0,1-3-3.84c-1.56-3.45-3.22-6.84-4.82-10.27-.32-.69-.52-1.45-.78-2.17a59.4,59.4,0,0,1,4.88,4.45c1.62,1.49,3.37,2.83,5,4.19.32.83.57,1.6.89,2.33a12.14,12.14,0,0,0,3.25,4.45,4,4,0,0,0,4.46.78,7.78,7.78,0,0,0,4.48-4.41l1-2.87,2.48-1.22.56-2.32c-.92-1.45-2.38-.64-3.48-.91-3.64-4.55-7.29-5-12.19-1.45l-1.78,2.8c-1.94-.39-3.05-1.78-4.26-3a50.72,50.72,0,0,1-7.85-9.08c.94-2.34,1.77-4.46,2.65-6.57A101.29,101.29,0,0,0,569,839.38c.29-12.39-.88-24.33-4.26-35.56-.17-.54-.63-1.05-.07-1.85.25,0,.59-.08.79,0a48.5,48.5,0,0,1,4.27,2.9c4.09,3.32,8.06,6.78,12.17,10.07a34.46,34.46,0,0,1,9.53,11.17c.22.44.54.82.76,1.26s.33.86.52,1.35a9.77,9.77,0,0,1-1.07.48c-3.78,1.08-6.26,4-7.93,7.5-4.5,9.36-5.69,18.93-5.63,28.5a18.88,18.88,0,0,0,.33,2.82,40.73,40.73,0,0,0,5.82,15.13,17.41,17.41,0,0,0,3.1,3.81,10.28,10.28,0,0,0,9,2.72,10.11,10.11,0,0,0,6.24-3.47,31.61,31.61,0,0,0,5.78-9.36c.27-.71.63-1.4.93-2l1.41,0c3.32,0,5.8-1.82,7.63-5.05a19.05,19.05,0,0,0,2.28-8c.88-11-1.84-20.08-8.78-27a33.43,33.43,0,0,0-5.82-4.66,15,15,0,0,0-9.48-2.52c-.6.05-1.19,0-1.76,0-1.11-1.74-2.16-3.39-3.2-5.05a25.66,25.66,0,0,0-5.48-6.33c-1.25-1-2.56-2-3.84-3a15.81,15.81,0,0,1-1.54-1.3c-.42-.41-1.12-.56-1.4-1.67,1.41.74,2.51,1.31,3.6,1.9,3.47,1.87,6.9,3.79,10.4,5.59s7.2,3.64,10.88,5.31c5.35,2.42,10.78,4.68,16.15,7.06a22.07,22.07,0,0,1,3.22,1.89c4.5,3,7.93,7.2,11.08,11.66,1,1.34,1.79,2.77,2.7,4.17a23.11,23.11,0,0,0-3.16,9.73c-.3,2.29-.67,4.59-1.07,6.88a46.4,46.4,0,0,0-.62,11q.57,8.76,1.26,17.47a26.46,26.46,0,0,0,3.76,12.15,30.14,30.14,0,0,0,6.46,7.79,42,42,0,0,0,5.46,3.67,9.9,9.9,0,0,0,5.38,1.29c3.26-.1,5.87-1.68,7.74-4.92a19.92,19.92,0,0,0,2.29-6.72c.14-.84.29-1.67.48-2.79,2.33.6,4.39,1.71,6.91.41a13.4,13.4,0,0,0,4.58-8.54c.2-1.41.35-2.83.48-4.25a50.51,50.51,0,0,0-10.83-33.2c-4.25-5-9.76-8.31-15.89-10.59-3.73-1.38-7.61-2.47-12.07-.43a67.06,67.06,0,0,0-12.16-14.51c1.63.41,2.58.62,3.51.88,1.78.49,3.54,1.07,5.34,1.5a126.23,126.23,0,0,0,32.48,3.85c1.22,0,2.43,0,3.65,0,3,0,5.53,1.23,8.17,2.15a3.14,3.14,0,0,1,.91.68l4.21,3.91c2.57,2.39,4.19,5.57,5.79,8.76a9.72,9.72,0,0,1,.51,1.56,6,6,0,0,1-.64,1.07,8.49,8.49,0,0,0-2.54,7.36,37.19,37.19,0,0,0,.9,5.22,49.29,49.29,0,0,0,5,11.89,23.82,23.82,0,0,0,11.18,10.49,20.83,20.83,0,0,0,10.69,1.82,13.71,13.71,0,0,0,6.88-2.62,20.32,20.32,0,0,0,5.6-5.64c2.92-.06,5.19-1.9,7.33-4.09.48-.49,1-1,1.45-1.47,3.19-3.4,3.88-6.12,2.48-9.91a6.79,6.79,0,0,0-1.08-2.11c-2.14-2.48-4.07-5.23-6.78-7.05-3.73-2.51-7.56-4.87-11.46-7.12a58.72,58.72,0,0,0-7-3.33,23,23,0,0,0-12.65-1.29,14.54,14.54,0,0,0-6.79,3.06c-.5.39-.87,1.15-1.85.95-2.85-6-7.34-10.58-13.35-14.26,1.18-.09,1.78-.17,2.36-.18,7.82-.09,15.7-.74,23.59-1.49a73.69,73.69,0,0,0,13.56-2.55c3-.87,5.95-1.61,8.92-2.37.7-.18,1.4-.25,2.21-.39a6.26,6.26,0,0,1,0,1.38,8.51,8.51,0,0,0,.71,6.14,44.93,44.93,0,0,0,2.7,4.92,65.76,65.76,0,0,0,8.44,9.91,15.59,15.59,0,0,0,9.76,4.65c1.28.13,2.57.29,3.82.52,4.55.85,9.26.11,14-1,4-.92,7-3.56,9.42-7.16a19.68,19.68,0,0,0,3.41-7.41,6.1,6.1,0,0,1,.49-1.22c.88-.64,1.72-1.21,2.52-1.85,2.74-2.18,3.51-4.76,2.13-7.51a16.85,16.85,0,0,0-2.13-3.14c-4.77-5.76-11.21-8.53-18.89-8.9a47.39,47.39,0,0,0-13.8,1.41,124.76,124.76,0,0,0-15.93,4.91c-8.11,3.2-16.37,4.8-24.58,6.83a10.26,10.26,0,0,1-1.54.24l-20.58,1.82c-.34,0-.83.17-.74-.68l4.11-1.48a19.19,19.19,0,0,0,8.85-.07q2.79-.52,5.56-1c7-1.12,13.67-4.15,20.16-7.93,2-1.17,4-2.57,5.89-3.93a15.81,15.81,0,0,0,4.78-5.8,6.35,6.35,0,0,0,.52-5.35,6.49,6.49,0,0,0-5-4.46c-.55-.12-1.06-.32-1.55-.47a8.16,8.16,0,0,1,.09-1.16c1.36-5.51-.44-9.45-3.93-12.42-2.84-2.42-6.35-2.76-10.23-.87-2.26,1.11-4.41,2.58-6.61,3.89-.54.32-1,1-1.59.76l-1.91-3.53a13.63,13.63,0,0,0-11.33-1.73c-1-6.17-1-6.17-3.58-8.29a13.32,13.32,0,0,0-5.89-.68c-7.55.53-14,4.24-19.42,10.74-2.42,2.92-4.59,6.08-6.91,9.1a44.15,44.15,0,0,0-6.75,13.11c-1.23,3.68-2,7.4-1.08,11a2.58,2.58,0,0,1-.14.89,11.17,11.17,0,0,1-5.33,2.62c-4.83.89-9.66,1.7-14.49,2.48a12.79,12.79,0,0,1-6.17-.73,201.1,201.1,0,0,1-19-7.7c-5.54-2.47-11-5.14-16.38-7.86-4.38-2.2-8.64-4.6-12.94-6.94-.62-.34-1.41-.59-1.5-1.67l8.28,1.19a26.45,26.45,0,0,0,13.11-1.51c.79-.29,1.6-.52,2.27-.74.22.18.32.22.35.3a7.47,7.47,0,0,1,.37,1.16,10.57,10.57,0,0,0,4,6.33,25.44,25.44,0,0,0,2.35,1.65c7.59,4.83,15.94,4.68,24.94-.73a74.31,74.31,0,0,0,13.82-11,25.64,25.64,0,0,0,7.79-15.27c.18-1.53.42-3.06.61-4.59a32.69,32.69,0,0,0-.44-9.86,5.93,5.93,0,0,0-3.35-4.54,20.77,20.77,0,0,0-12.9-2.4c-.67.1-1.43.44-2.1-.25.46-.38.86-.75,1.28-1,1.86-1.29,3.73-2.53,5.57-3.84a40.62,40.62,0,0,0,6.46-5.58,14.45,14.45,0,0,0,1.34-1.59,11.85,11.85,0,0,0,1.23-2.08,5.65,5.65,0,0,0,.41-1.92,14.1,14.1,0,0,0-.27-2.17l2.3-.2c1.44-.15,2.87-.29,4.31-.5a2.23,2.23,0,0,0,1.88-1.09,11,11,0,0,0,5.13-1c3.12-1.22,6.24-2.55,9.32-4,2.19-1,4.32-2.18,6.65-2.2.49,0,1.07-.57,1.62-.89-.12-.48-.1-.89-.28-1-2.84-2.43-5.56-5-8.59-7.16-4.53-3.22-10-4.54-15.77-4.74-4.82-.17-9.68-.14-14.55-.06-3.85.07-7.75.42-11.6.51-14.72.33-29.51,1.14-44.18,1.08-6.17,0-12.28-.27-18.34-.86a20,20,0,0,1-2.11-.44q1-5.39,1.92-10.39a2.17,2.17,0,0,1,2.5-.34c1.81,1,3.93,1.08,6,1.43s4.24.83,6.36,1.23c2.42.45,4.83.91,7.26,1.33,2.14.37,4.35.52,6.42,1.06a77.56,77.56,0,0,0,15.61,2,22.2,22.2,0,0,0,6.44-.63,80.13,80.13,0,0,0,20.81-8.2,6.05,6.05,0,0,0,1.07-1c-.06-.42,0-.68-.12-.82a5.27,5.27,0,0,0-1-1c-1-.74-2.11-1.34-3.06-2.14a10.07,10.07,0,0,0-4.94-2.27c-6.74-1.07-13.54-1.88-20.74-.57-8.12,1.49-16.25,2.84-24.37,4.49-5.35,1.09-10.69,1.9-16,2.59a16.87,16.87,0,0,1-1.74.07c0-2.85.08-5.56-.07-8.2s-.47-5.48-.83-8.18-.85-5.08-1.31-7.82a10.15,10.15,0,0,1,1.36-.12c1.61.06,3.23.07,4.81.24,4.18.45,8.34-.61,12.51-2.4.9-.39,1.81-.76,2.7-1.16,5.17-2.31,9.7-5.86,14-9.66l.14-1.19L596.78,670a6.88,6.88,0,0,1-1.19.06,29.59,29.59,0,0,0-9.77.7,73.49,73.49,0,0,0-19.42,7c-.65.35-1.34.58-2,.85-5.73-10.23-7.57-13-10.1-15.2-1.08-.32-2,.27-2.86,1.11a28.53,28.53,0,0,0-2.08,2.31c-4.15,5.1-8.27,10.23-12.43,15.33a43.42,43.42,0,0,0-4.89,7.54c-1.72,3.38-3.38,6.79-5,10.21-1.23,2.58-2.37,5.2-3.58,7.88-4.54,2.11-9,4.2-13.7,4.82-4.07.54-8,.25-10-.54,1.37-.8,2.75-1.48,4-2.37,4.63-3.19,7.36-7.75,9.21-12.95,2.53-7.11,1.37-12.89-2.72-17.65-.43-.5-.84-1-1.47-1.79.94,0,1.53-.08,2.11-.07,1.81,0,3.6.2,5.43.18,5.13-.06,9.55-2.5,13.32-6.87A12.6,12.6,0,0,0,533,660a13.21,13.21,0,0,0-.65-2.69c-1.92-5-5-8.93-9.9-10.87a39.28,39.28,0,0,0-5.26-1.68c-6.33-1.52-12.95-.78-19.7.9-.67.17-1.39.79-2.18.19.57-1.05,1.16-2.13,1.76-3.2a28.78,28.78,0,0,0,3.58-10.88c.49-4.52-.7-8.14-3.74-10.78a26.2,26.2,0,0,0-12.43-5.82c-6.6-1.29-12.73,1-18.48,6.09a38.46,38.46,0,0,0-5,5.71c-4.63,6.11-6.08,12.45-4.52,19.07.16.67.31,1.35.62,2.65l-1.2-1.18c-1.65-1.6-3.27-3.24-5-4.81a10.48,10.48,0,0,0-4.81-2.52c-9.48-2.2-19-.89-28.47,5.31-.4.26-.85.85-1.45.26.15-.46.31-1,.49-1.5a65,65,0,0,0,2.82-11.06c1-6.11.46-11.88-.34-17.6-.64-4.57-2.11-8.8-2.62-13.42a2,2,0,0,0-1.58-2l-.81.48c-.45,1.58.6,2.61.57,4.23a66,66,0,0,1-3.7,11c-1.8,4.44-3.89,8.8-5.66,13.24-4.11,10.31-5.72,20.57-4.16,30.68a74.79,74.79,0,0,0,2.87,11.67,25.19,25.19,0,0,0,5.71,10.25c.08.09.05.3.12.75-1.1-.81-2-1.45-2.92-2.17s-1.81-1.72-2.77-2.5A67.31,67.31,0,0,1,392.59,665a11.73,11.73,0,0,1-1.33-2.28c-1.56-3.58-3.1-7.16-4.57-10.78a37,37,0,0,1-2.75-11.69c-.22-3.5-.58-7-.45-10.54.37-10,2.38-19.86,8.66-29,.39-.57.72-1.18,1.08-1.77a19.33,19.33,0,0,0,2.19-5c.82-3,1.69-6.08,2.43-9.13a25.8,25.8,0,0,0,.63-4.25,16.57,16.57,0,0,0-5.12-13.41c.24.81.35,1.29.51,1.72q.86,2.26,1.74,4.51a18.32,18.32,0,0,1,.32,12c-.72,2.6-1.51,5.19-2.23,7.79-1,3.55-3.05,6.54-5.19,9.61-.62-.45-.33-1-.31-1.54.12-2.71.44-5.46.34-8.11-.22-5.48-1.91-10.18-5.43-13.74a27.53,27.53,0,0,0-10.6-6.74,20.71,20.71,0,0,0-8.27-.88,2.94,2.94,0,0,0-2.68,1.36c.23.41.38,1.05.77,1.34a18.28,18.28,0,0,1,5.09,6.28c1.93,3.55,4,7,5.66,10.75a23,23,0,0,0,8.25,9.54,11.78,11.78,0,0,1,4.62,6.07,81.2,81.2,0,0,0-4.26,16.38,6,6,0,0,1-.63,1.33c-.59-1-1-1.77-1.49-2.52-.81-1.34-1.58-2.72-2.45-4-4.49-6.63-11-10.68-17.95-14-3.57-1.7-7.67-1.55-11.83-.92a3.48,3.48,0,0,0-2.69,1.5l.18,1.32a11.58,11.58,0,0,1,2.52-1.14c3.19-.5,6.35-.78,9.33.09s5.76,2.63,8.49,4.21a35.94,35.94,0,0,1,14,14.72c.22.42.4.88.69,1.52-2.33.62-4.47,1.25-6.61,1.72a8.63,8.63,0,0,1-4.49-.13A8.87,8.87,0,0,1,363.4,623c-1.5-2.54-3-5.09-4.5-7.61-2.33-3.88-5.84-6.35-9.56-8.56-.33-.2-.75-.2-.93.42,0,.1,0,.23.1.28a6.72,6.72,0,0,0,.86.74,25.19,25.19,0,0,1,8.9,10.12c1,2.05,2.1,4,3.25,6,2.66,4.44,6.79,6,12.17,5.08a33.24,33.24,0,0,0,3.68-1,3.93,3.93,0,0,1,3.83.45c0,.53.06,1.16.07,1.8.13,6.12.51,12.15,2.14,17.8a3.14,3.14,0,0,1-.05,1.13c-.88-1-1.79-1.92-2.63-2.94a25.24,25.24,0,0,0-7-5.75,1.42,1.42,0,0,0,.41.71,37,37,0,0,1,4.53,4.4c2.54,3.42,4.92,7,7.16,10.69,2.87,4.68,5.51,9.53,8.31,14.26a19.72,19.72,0,0,0,2.33,3,57.62,57.62,0,0,0,11.75,10.08,52.15,52.15,0,0,1,6.46,5.2c-.24.14-.36.27-.42.25-8.67-3.29-16.95-7.4-25.94-10a5.84,5.84,0,0,1-1-.53c-.49-3.77-1-7.5-1.48-11.4.27-.87.59-1.94.84-2.74a3.5,3.5,0,0,0-2.18-2.9,9.8,9.8,0,0,0-7.08-.38,3.81,3.81,0,0,0-2.23,1.33c-.58,2.43-.54,3,.44,4.84.84,1.61,1.84,3,4,3.17a14,14,0,0,1,1.89-1.05,7.3,7.3,0,0,1,1.65-.3c1.44,3.51,1.88,6.33,1.35,8.7-2.38-.6-4.72-1.24-7.11-1.77-2.87-.65-5.75-1.24-8.66-1.78a3.56,3.56,0,0,1-3.19-3c-.52-2.42-1.21-4.78-1.66-7.23a28.32,28.32,0,0,1,0-9c3.64-1,6.48-2.8,7.45-6.94a7.28,7.28,0,0,0-.81-1.37c-1.65-1.7-7.15-2.39-9.43-.92a33.34,33.34,0,0,0-5.78,4,30.28,30.28,0,0,1-6.11,4.8,8.65,8.65,0,0,1-1-.77c-2.64-2.79-5.29-5.59-7.91-8.4a5.12,5.12,0,0,1-1-1.43,29.25,29.25,0,0,1-2-13.21,5,5,0,0,1,1.28-3.52c.46.1.93.19,1.37.33,1.81.56,3.43-.2,4.88-1.74a16.8,16.8,0,0,0,1.86-2.47,4,4,0,0,0,.1-4.54,6.29,6.29,0,0,0-3.94-2.75c-2.38-.63-4.84-1-7.33.91a4.66,4.66,0,0,0-.59,4.74c.52,1.29,1.18,2.5,1.88,4-2,4-1.29,7.79-.65,11.61.1.62.26,1.22.34,1.84.06.44.46.87-.2,1.5l-6-7a73.2,73.2,0,0,1-5.57-6.79,38.1,38.1,0,0,1,.15-18.8c1,0,1.85,0,2.74,0a5.13,5.13,0,0,0,3.7-1.9A6.32,6.32,0,0,0,333,603.4a5.06,5.06,0,0,0-2.62-4.36,12.43,12.43,0,0,0-8-1.65,4.91,4.91,0,0,0-3.2,1.34,3.44,3.44,0,0,0-.66,2.88c.51,2.59,2.26,4.09,4.19,5.53-.09,1.4-.16,2.8-.27,4.21s-.33,2.84-.38,4.24.05,3,.06,4.5c0,1.33.6,2.52.29,4.49-5.75-8-12.41-14.58-16.89-23.22.35-4.38-.05-8.74,1.16-13.37.85-.13,1.55-.21,2.26-.35a5.33,5.33,0,0,0,3.92-3.39,3.49,3.49,0,0,0-.88-4,6.39,6.39,0,0,0-4.08-2,6.3,6.3,0,0,0-4.72.87,3.61,3.61,0,0,0-.91,4.32,34.78,34.78,0,0,0,2.32,3.61c-.12,3.33-.24,6.67-.38,10,0,.41,0,.88-.62,1-3.72-5.95-7.46-11.91-11.25-17.95.86-1.09,1.83-2.16,1.55-3.81-.7-1.94-2.48-2.9-4.32-3.74a3.81,3.81,0,0,0-3.81.05,3.15,3.15,0,0,0-1.28,3c.56,2.86,1.57,5.32,4.8,5.53a11.12,11.12,0,0,1,1.32.23c2.18,3.54,4.3,6.95,6.39,10.38.26.43.83.79.36,1.55l-7.09-1a29.29,29.29,0,0,0-3.08-2,6,6,0,0,0-5,0,4,4,0,0,0-2.49,4.3,5.24,5.24,0,0,0,2.79,3.95c2,1,3.83.59,5.69-1.33.95-1,1.79-2.07,2.69-3.12a17.4,17.4,0,0,1,8.1,1.38l11.13,18s-.06.21-.08.31c-2-.39-4-.92-6.06-1.12s-4.42-.12-6.81-.17a7.36,7.36,0,0,0-.69-.69c-2.18-1.75-4.73-1.56-7.44,0a4.33,4.33,0,0,0-2.16,5.11,4.15,4.15,0,0,0,1.83,2.56c.59.33,1.16.68,1.76,1,2.69,1.34,5.9-.32,7.1-3.68a22.36,22.36,0,0,0,.54-2.18,7,7,0,0,1,1.05-.33,27.93,27.93,0,0,1,11.79,1.32,4.88,4.88,0,0,1,2.5,1.85c3.68,4.88,7.4,9.72,11.1,14.58.22.3.51.62.07,1.09a.67.67,0,0,1-.3.06,11,11,0,0,1-1.14-.25,27.24,27.24,0,0,0-11-1,11.29,11.29,0,0,1-3.22-.4c-3-.58-6-1.27-9-1.8-4.88-.87-9.83.38-14.52,3.17-4.43,2.64-7.62,6.5-7.75,12a3.15,3.15,0,0,1-.25.77,21.64,21.64,0,0,1-8,4.77c-.65-1-1.33-1.9-1.94-2.89-1.44-2.33-2.84-4.7-4.27-7a82.51,82.51,0,0,1-6.12-12.22,239.37,239.37,0,0,1-9.68-28.81c-.41-1.58-.91-3.13-1.39-4.68,0-.17-.27-.25-.57-.51l-1.7.65a5.24,5.24,0,0,0-.26.89c0,.76-.07,1.52,0,2.27.5,13.54,2.46,26.52,7.09,38.47a151.91,151.91,0,0,0,12,24.6c.35.57.66,1.18,1,1.86-.49.84-.93,1.64-1.42,2.42a12.3,12.3,0,0,1-1,1.17A19.78,19.78,0,0,1,259,665.5c-3.5-2.16-7-4.33-10.46-6.56a8.25,8.25,0,0,1-2.11-1.93,40.39,40.39,0,0,1-5.42-9.45c-.73-1.87-1.58-3.67-2.39-5.5-3.52-7.93-7.33-15.68-10.09-24.1a54.75,54.75,0,0,1-2.76-16.9c0-5.91-.25-11.78-.5-17.65a97.17,97.17,0,0,0-3.31-21.33c-.27-1-.61-1.94-1-2.87-.1-.27-.38-.43-.57-.64a5.64,5.64,0,0,0-.91,0,5,5,0,0,0-.85.29c-1.22,2-1.27,2-1.55,3.76-.38,2.51-.69,5-1,7.54a75.24,75.24,0,0,0-.4,17.13,158.82,158.82,0,0,0,3.3,22c2.75,11.46,6.56,22.31,12.35,32,1.61,2.69,3.42,5.23,5.14,7.85a.72.72,0,0,1-.11,1.08,1.76,1.76,0,0,1-.58-.1,11.51,11.51,0,0,1-1.46-.91,139.05,139.05,0,0,1-14.59-12.54,30.56,30.56,0,0,1-8.11-14.59c-.54-2.3-1.14-4.59-1.77-6.85a103.21,103.21,0,0,1-3.71-27,60.71,60.71,0,0,0-.65-7.91,104.56,104.56,0,0,0-6.29-23.07c-1.59-4.13-3.27-8.2-4.94-12.29a13.18,13.18,0,0,0-.91-1.58l-1.51.64c-.06.81-.13,1.46-.16,2.1-.67,11.31-.24,22.42.15,33.52a47.59,47.59,0,0,0,.76,6.91c2.07,11.44,5.53,22.11,11.35,31.46.28.45.73.86.5,1.59-1-1.16-2-2.26-2.94-3.49a102,102,0,0,1-8-12.64c-6.86-12.92-13.58-25.94-19.17-39.72-2.3-5.67-4.54-11.38-6.64-17.17-2.74-7.53-6.71-14.2-10.45-21a1.62,1.62,0,0,0-1.77-1.07C155.19,524.74,154.7,525.15,154.58,525.6ZM484.73,892c1.16-2.85,2.34-5.7,3.33-8.59,1.11-3.22,2-6.47,3-9.71.13-.42.34-.83.52-1.26.79,0,.63.66.6,1.09-.15,2.6-.2,5.2-.57,7.81a87.53,87.53,0,0,1-3.81,15.32A56.88,56.88,0,0,1,479,912.59a51.45,51.45,0,0,1-5.29,6.55c-.16-.34-.38-.56-.36-.8q.25-4.4.57-8.8a33.22,33.22,0,0,1,4.93-15.32c2.43-3.92,5-7.77,7.49-11.65-.31,3.69-2.34,7-2.93,10.79C484.32,893.23,484.53,892.5,484.73,892Zm15.69,3c.17,4.36.3,8.73.43,13.1,0,1.06,0,2.13,0,3.27l1.3-.29c1.52,6.45,4.81,11.77,8,17.15.32.54,1,.92.69,2a2.81,2.81,0,0,1-.79-.09,34,34,0,0,1-8.29-5.07,15.17,15.17,0,0,1-5.28-9.66c-.82-6.22-.64-12.52,2-19,.35-.83.76-1.64,1.13-2.42C500.49,893.83,500.41,894.49,500.42,894.94Zm-2.56-23c.47-.25.35.06.31.29Zm11.31.28c-2.08-1.45-4.8-1.75-6.89-3.41a10.66,10.66,0,0,1,8.59.25,19.82,19.82,0,0,1,5.54,4c1.1,1.07,2.06,2.29,3.16,3.35,2.28,2.18,4.61,4.3,6.92,6.44.61.57,1.21,1.14,1.8,1.68-.17.28-.21.43-.28.46-3.43,1.39-6.69,1.73-9.73.25a54.83,54.83,0,0,1-10.41-6.56c-3.19-2.56-6.16-5.42-9.21-8.18a17.67,17.67,0,0,1-1.39-1.75C501.63,870,505.14,871.78,509.17,872.23ZM555.4,890.6l-2.22-1.17a30.2,30.2,0,0,1,2.14-5.4C556.22,885.41,556.25,887.41,555.4,890.6Zm39.25-58.94c.7,2.09,1.39,4.21,2.1,6.31a56.9,56.9,0,0,0,2.21,6.37,17.12,17.12,0,0,0-.62-8.06c-.66-2.35-1.54-4.59-2.31-6.87.35-.69.9-.64,1.37-.63a13.29,13.29,0,0,1,6.94,2,32.47,32.47,0,0,1,8.6,8,30.7,30.7,0,0,1,5.53,16.51,57,57,0,0,1-.22,7.13,15.22,15.22,0,0,1-1.65,5.81c-1.47,2.93-3.28,4.16-6.17,4.19-1,0-2-.27-3.1.48.13.63.25,1.2.38,1.79a10.19,10.19,0,0,1-1.42,3.78,34.8,34.8,0,0,1-4.31,5.84,8.17,8.17,0,0,1-8.62,2.88,9.59,9.59,0,0,1-4.82-3,7.63,7.63,0,0,1-.91-1.13c-4.58-7.3-7.39-15.4-6.15-25.27.37-3,.79-5.9,1.24-8.85a42.52,42.52,0,0,1,3.08-10,18.05,18.05,0,0,1,3.11-5C590.47,832.24,592.14,831.12,594.65,831.66Zm46.54,15.5a11.11,11.11,0,0,1,5.61.48c13.37,4.24,22,13.56,26,27.72a81.52,81.52,0,0,1,1.76,8.5,37.2,37.2,0,0,1-.09,10.94,12.64,12.64,0,0,1-3.24,7,3.56,3.56,0,0,1-3.49-.28c-1.17-.64-2.28-1.41-3.47-2a4.07,4.07,0,0,0-3.1-.74c-.17,1.19.68,1.47,1.12,2a13.87,13.87,0,0,0,1.81,1.59A17.61,17.61,0,0,1,660.83,913a6.49,6.49,0,0,1-5.26,3,9.76,9.76,0,0,1-5.6-1.51,29,29,0,0,1-12.32-15.79,31.55,31.55,0,0,1-1.28-7c-.49-5.47-.79-11-1.15-16.5a42,42,0,0,1,.26-8.73c.52-3.71,1-7.42,1.58-11.13a34.86,34.86,0,0,1,1-3.91,5.13,5.13,0,0,1,.63-1,13.34,13.34,0,0,1,1.05,1.47q3.39,6.6,6.74,13.22c1.55,3.1,3,6.24,4.6,9.34a16.35,16.35,0,0,0,1.3,1.9l.25-.12a25.25,25.25,0,0,0-1.08-3.77Q648,864.63,644.29,857c-1.17-2.4-2.57-4.66-3.83-7a18.44,18.44,0,0,1-.81-2.09A8,8,0,0,1,641.19,847.16Zm58,4a20.45,20.45,0,0,1,10.13.43,36.1,36.1,0,0,1,8.64,3.91c3.7,2.36,7.45,4.67,11.06,7.16,2.6,1.8,4.5,4.42,6.58,6.81a7.17,7.17,0,0,1,1.61,5.05c-1,3.29-3.64,5.53-6.32,7.61a5.9,5.9,0,0,1-3,.95,20.29,20.29,0,0,1-11.25-1.83,34.09,34.09,0,0,1-11.92-9.26c-1.37-1.74-3-3.28-4.4-5a50.09,50.09,0,0,1-7.23-12.09A9.29,9.29,0,0,1,699.17,851.11Zm-7.67,5.59a4.81,4.81,0,0,1,.82.74c1.83,2.75,3.57,5.58,5.47,8.28a80.52,80.52,0,0,0,10.08,11.88,27.54,27.54,0,0,0,12.1,7c1.4.37,2.87.55,4.8.92-2.63,3.12-5.3,5-8.53,5.48a17.77,17.77,0,0,1-9.66-1.07,23.3,23.3,0,0,1-11.42-10.15,49.49,49.49,0,0,1-5.52-12.9,23.26,23.26,0,0,1-.59-3.37C688.79,860.53,689.15,859.62,691.5,856.7Zm46-28.43a102.31,102.31,0,0,1,15-4.39,40.94,40.94,0,0,1,16.67-.57,23.14,23.14,0,0,1,14.18,8.76,10.86,10.86,0,0,1,1.61,2.79,3.41,3.41,0,0,1-1.35,4.12q-4.43,3.09-9,5.87a8.26,8.26,0,0,1-5.75,1c-4.7-.69-9.35-1.48-13.63-3.33-3.09-1.34-6.27-2.5-9.36-3.85a22.16,22.16,0,0,1-5.79-3.69,16,16,0,0,0-6.18-3.59,9.33,9.33,0,0,1-1.49-.77A25,25,0,0,1,737.49,828.27Zm.12,8c3.29,2.89,7.25,4.59,11.31,6.15,2.34.9,4.75,1.66,7.08,2.59,4.34,1.75,9.11,2.17,13.85,2.67a10.07,10.07,0,0,0,4.88-1.14c.89-.38,1.76-.83,2.77-1.3.1.47.17.59.14.66a30.06,30.06,0,0,1-4.34,6.59,9.48,9.48,0,0,1-4.77,2.93c-4.32,1.07-8.63,1.9-12.83,1.34-1.27-.17-2.56-.3-3.85-.43a15.71,15.71,0,0,1-9.17-4,54.33,54.33,0,0,1-9.25-10.28,42.7,42.7,0,0,1-2.89-5.49,4.11,4.11,0,0,1,.18-3.85A17.75,17.75,0,0,1,737.61,836.25Zm-31.72-34.37a33.22,33.22,0,0,1,11.39-9c3.7-1.77,6.71-1.32,9.09,1.29a14.1,14.1,0,0,1,2.16,3.1,8.65,8.65,0,0,1,.31,7.13c-.31.85-.58,1.71-.83,2.47.37,1.05,1.18,1.08,2,1a5,5,0,0,1,3.41.69c2.36,1.55,3.58,4.2.86,7.92a15.25,15.25,0,0,1-3.66,3.6,103.76,103.76,0,0,1-9.17,5.53c-7.28,4-14.76,5.33-22.28,6.46a3.31,3.31,0,0,1-.89,0c-.06,0-.09-.15-.22-.4a13.92,13.92,0,0,1,1.26-.85c1.76-.94,3.53-1.86,5.29-2.77a29.3,29.3,0,0,0,7.35-5.38,87.37,87.37,0,0,0,9-10c.31-.43.54-.91,1-1.69-.62.24-1,.26-1.15.45-2.06,2-4.11,4-6.14,6-1.21,1.22-2.38,2.5-3.55,3.76a27.81,27.81,0,0,1-7.53,5.73c-2.94,1.53-5.85,3.14-8.83,4.75l-2.67-1.4c-.93-1.93-.48-3.93,0-5.88a36.63,36.63,0,0,1,4.87-10.56A145.85,145.85,0,0,1,705.89,801.88ZM653.3,821.54a29.74,29.74,0,0,1,2.23-8.76,58.56,58.56,0,0,1,8.57-14.15c1.44-1.8,2.79-3.69,4.28-5.44,4.28-5,9.25-8.54,15.26-9.43a28.58,28.58,0,0,1,5.46-.15c2.52.12,3.79,1.71,4.09,4.26.13,1,.13,2.12.22,3.18a3,3,0,0,0,1.34,2.54l1.25-2.67c3.82-1.32,6.83.09,9.63,1.61a4.67,4.67,0,0,1,1,5.16c-3,4-5.88,7.78-8.57,11.67a56.38,56.38,0,0,0-6.74,12.42,29.26,29.26,0,0,1-10.37,4.88c-6.62,1.56-13.15,2.24-19.44,1-1-.18-2-.18-3-.33-1.16-.18-2.37-.29-3.16-1.49,1.31-1.39,2.95-2.07,4.38-3.12a13.12,13.12,0,0,0,3.92-4c-3.74,1.5-6.45,4.14-9.74,5.68A3.7,3.7,0,0,1,653.3,821.54Zm-17.37,10.05q3.39-.57,6.78-1c3.29-.45,6.57-1,9.79-3.1a10.1,10.1,0,0,0,6.83,2.18,4.4,4.4,0,0,1,.89.08c6.19,1.24,12.62.4,19.14-1.18a29.68,29.68,0,0,0,8.4-3.46c.83-.5,1.7-.91,2.84-1.51-.16,2.44-.81,4.68-.05,6.86l1.44,1.88c-.26.86-1,.9-1.51,1.08-2.85.94-5.71,1.86-8.57,2.69a11.18,11.18,0,0,1-2.75.33c-3.65.09-7.3.11-10.95.21a126.74,126.74,0,0,1-30.75-3.38,25.18,25.18,0,0,1-3.17-1.08A8.68,8.68,0,0,1,635.93,831.59ZM581.08,712.5c5.45-1,10.89-2,16.33-3,3.39-.63,6.79-1.23,10.17-2,7.93-1.89,15.51-1.5,23-.53a11.2,11.2,0,0,1,5.81,2.43c.79.64,1.61,1.24,2.57,2a13.52,13.52,0,0,1-1.24,1A63.85,63.85,0,0,1,619,719.09a18.31,18.31,0,0,1-4.88.31,75.74,75.74,0,0,1-14.1-1.92c-2.54-.65-5.2-1-7.79-1.55s-5.18-1.08-7.76-1.64c-1.52-.34-3-.72-4.57-1.08C580.11,712.46,580.66,712.58,581.08,712.5ZM385.82,602.08c-2.06-1.69-4.07-3.45-6.17-5.11a17,17,0,0,1-4.26-5.43c-2.14-4-4.29-8-6.55-11.87a51.12,51.12,0,0,0-3.39-4.71c-.32-.44-.69-.83-1.24-1.5a14.13,14.13,0,0,1,7.07.46,25.5,25.5,0,0,1,11.87,7.76,18.64,18.64,0,0,1,3.9,9,35.93,35.93,0,0,1,.12,10.87,6.6,6.6,0,0,1-.38,1.1A5.79,5.79,0,0,1,385.82,602.08Zm-2.39,47.8.31.24C383.3,650.4,383.42,650.08,383.43,649.88Zm-120.21,9.36a2.76,2.76,0,0,1-.32-.49c-6.23-11.35-11.67-23.16-14.45-36.54a116.47,116.47,0,0,1-2-14.57,6.05,6.05,0,0,1,1.17,2.55c.26.76.49,1.55.74,2.32l.84,2.6.78,2.3.81,2.29c.27.76.54,1.52.82,2.28s.54,1.52.82,2.27.62,1.71.94,2.55.57,1.51.86,2.26.59,1.49.89,2.23.62,1.48.94,2.21.66,1.45,1,2.17.78,1.6,1.19,2.39.75,1.39,1.13,2.08.75,1.39,1.14,2.07.78,1.36,1.18,2l1.2,2,1.34,2.28c.4.68.81,1.34,1.21,2s.79,1.35,1.15,2c-.94,2.6-1.75,4.82-2.59,7.12C263.58,660,263.44,659.52,263.22,659.24Zm-6.94,42.61c-3,1.21-6,2.48-9.09,3.5a73.87,73.87,0,0,0-12.25,5.51c-1.36.76-2.73,1.48-4.1,2.18a11.06,11.06,0,0,1-1.42.47,11.56,11.56,0,0,1,2.45-4.37c6.65-7.33,13.84-13.77,22.7-17.3a4,4,0,0,1,.88-.15l2.2,9.2A7,7,0,0,1,256.28,701.85Zm20.31,19c-.5,0-1-.07-1.49-.09s-.8,0-1.29,0a3.41,3.41,0,0,0-3.37-2l-1.94,1.74a2.66,2.66,0,0,1-.72-.4,8.62,8.62,0,0,1-2-4.27c-.15-.82-.3-1.64-.39-2.47a23.22,23.22,0,0,0-2.63-8.4c-.75-1.39-1.5-2.78-2.23-4.18-.46-.88-.92-1.75-1.31-2.68a18.09,18.09,0,0,1-.47-11.61,6.35,6.35,0,0,1,.28-1,14,14,0,0,1,7.2-7,41.68,41.68,0,0,0-.11,4.66,18.51,18.51,0,0,0,.84,4.25,17.64,17.64,0,0,0,1.72,3.45c.7,1.14,1.54,2.18,2.46,3.46-2,.71-3.92.93-5.56,2.1,0,.85.52.55.85.42a13,13,0,0,1,6.29-.95l1.53,2a2.55,2.55,0,0,1-1.25,2.48l-4.67,3.22c0,.79.48.62.83.42,1.25-.72,2.48-1.51,3.73-2.24.66-.38,1.35-.71,2.17-1.14.18.58.33,1,.46,1.46-1.26,2.8-4,4.16-5.56,6.88,1.91-.61,2.75-2.63,4.38-3.28.64.11.42.76.49,1.23,0,.1,0,.21,0,.32.3,7.33.3,7.33,2.73,13.55C277.2,721.42,276.9,720.85,276.59,720.85Zm56.87-50.64a17,17,0,0,1-1.73-.09,93.62,93.62,0,0,0-13.86-1.77c-3.62-.09-7.29,0-10.94.12a4,4,0,0,0-2.63.6c.68.6,1.63.43,2.49.46,2.92.12,5.84.17,8.77.23a115.74,115.74,0,0,1,17.76,2c.46.08.91.22,1.27.31.1.94-.49,1.17-.94,1.37-3.29,1.49-6.56,3-9.89,4.38s-6.48,2.36-9.73,3.54c-.87.32-1.74.67-3,1.15,2.63.34,5.95-.54,12.69-3.43,4-1.71,7.92-3.63,12-5.51.17.39.32.73.51,1.13a16.89,16.89,0,0,1-1.19,1.73,70.14,70.14,0,0,1-23.57,17.94,8.49,8.49,0,0,0-3,1.86c1.08-.25,1.56-.31,2-.47,7.11-2.34,13.36-6.67,19.15-12,1.76-1.63,3.38-3.44,5.08-5.15.62-.62,1.28-1.19,2-1.89a5.18,5.18,0,0,1,.14,3.61,33,33,0,0,1-3.28,8.92,41.46,41.46,0,0,1-5.05,7.44c-3.33,4-6.7,7.93-10.14,11.8a44.49,44.49,0,0,1-4.25,4,27,27,0,0,1-9.53,5.25,34.51,34.51,0,0,1-19.28.52,7.71,7.71,0,0,1-5.2-4.28,25.06,25.06,0,0,1-2.33-8.87c-.15-1.47-.3-2.94-.47-4.4a10.85,10.85,0,0,0-2.6-6c-1.07-1.24-2.16-2.47-3.21-3.73a16,16,0,0,1-3-5.37c-1.1-3.37-.67-6.82.92-10.47,3.21-7.4,8.73-11.72,15.56-14.23a44,44,0,0,1,7.06-1.84,58.81,58.81,0,0,1,24.28.86,36.58,36.58,0,0,1,14,6.56A8.25,8.25,0,0,1,333.46,670.21Zm-1.62-16.38c-.25-1.54-.77-3-1.14-4.46-.1-.38-.13-.77-.22-1.32,5.69,3,8.74,12.3,7.2,21.43-.53.35-.7,0-.86-.38C334.8,664.2,332.74,659.32,331.84,653.83Zm135.86,2.94-3,.3a5.54,5.54,0,0,1,4.17-2Zm-6.19,11.4c-1.57-.68-3-1.18-4-2.42l.78-1,4,.26C462.66,666.09,462,666.94,461.51,668.17Zm4.05-9.26a6.24,6.24,0,0,1-1.1,2.52c-.42.78-.89,1.55-1.37,2.37-1.62.05-3.14.39-4.49-.31.29-1.78,1.57-2.78,2.59-4A12.5,12.5,0,0,1,465.56,658.91Zm-4.62-1.31-3.85,1.26c2.33-2.69,3.79-3.58,7.55-4.46Zm-2.27,2.7a5.5,5.5,0,0,1-.31,1.1c-.4.67-.85,1.31-1.22,1.87-.93.25-1.57.21-1.74-.87A3.5,3.5,0,0,1,458.67,660.3Zm-3.42,7.17c1.27.78,2.54,1.6,3.86,2.35s2.94.95,4.17,2.15c-2.24,5.28-5.26,10.34-6.51,15.9,2.86-5.13,5.24-10.43,7.54-15.7l5.4-.67c1.52-.2,3-1.3,4.55-1.2a3.32,3.32,0,0,1,.3.93c-.13,4.92,1,9.4,2.11,13.89a14.21,14.21,0,0,1,.38,2.79,49.76,49.76,0,0,1-1.42,13.36,23.7,23.7,0,0,1-2.84,6.94,20.33,20.33,0,0,1-14.08,9.21c-7.57,1-14.25-.4-19.75-4.91a10.76,10.76,0,0,1-3.95-6.42,30.38,30.38,0,0,1,1.87-18.3,39.16,39.16,0,0,1,5.68-8.65c.36-.45.77-.86,1.12-1.32a34.78,34.78,0,0,1,7.87-7.6C452.75,669.39,453.9,668.47,455.25,667.47ZM471.31,659c-.42,2.09-.42,2.09-2.3,4.63a7.28,7.28,0,0,1-4.11,0,10.47,10.47,0,0,1,2.5-4.91Zm-2.58-2.39,1.91-2h2c.65.89.34,1.65-.39,2.53A5.33,5.33,0,0,1,468.73,656.62Zm2.81,6.86c.23-1.62.23-1.62,1.65-4.06,1.42-.49,2.61.09,4.17.27-.6,1.2-1.05,2.07-1.51,3A10.85,10.85,0,0,1,471.54,663.48Zm2.4,1.45a10.8,10.8,0,0,1-3.86,3.57,3.53,3.53,0,0,1-3.3.7l3.09-3.83A13.31,13.31,0,0,1,473.94,664.93Zm-.05-7.43c.08-.8.16-1.51.24-2.21,1.27-.8,2.08-.21,2.89.22s1.12,1,.92,2.34C476.4,658.25,475.28,657.62,473.89,657.5Zm-9.17,11.75-1.3-.51a5.29,5.29,0,0,1,.89-3.32,3.84,3.84,0,0,1,2.94-.09C467,667,465.42,667.65,464.72,669.25ZM480,657.82l.55,1C479.54,658.85,479.54,658.85,480,657.82Zm.26,3.15a2.21,2.21,0,0,1-2.18,1c-.37-.42-.31-.52,1-1.68Zm-1.63,2.85c-.13.45-.14.81-.31,1a15.24,15.24,0,0,1-4.84,2.92c-.22-1,.6-1.13.93-1.55s.91-1,1.58-1.75Zm73.1,117.08-1.61,2.76a8.87,8.87,0,0,1-2.59-3.19,5.47,5.47,0,0,1,2.39-2.65Zm-.65-4.83c.61.59.61.59.58,1.81-.68-.09-.54-.86-.92-1.08C551,776.45,551,776.26,551.12,776.07Zm-6.33,22.78-1,.95a5.91,5.91,0,0,1-3.83-1.35,17.76,17.76,0,0,1,3.62-3.3A5.12,5.12,0,0,1,544.79,798.85Zm.11-4.85c2.67-3.6,3.91-4.91,5.45-5.7a4.64,4.64,0,0,1,0,1.23,22.39,22.39,0,0,1-4.11,7.48A6,6,0,0,1,544.9,794Zm-31.59-18.26a7.25,7.25,0,0,1,2.72-3.41,4.83,4.83,0,0,1,1.46,3c-1.27,1.19-2.15,2.43-3.62,3.15C513.66,777.46,513.48,776.57,513.31,775.74Zm-3.7,7.42c.49-2.68.66-3.06,2.12-4.9.67.38.63,1.13.62,2A9.66,9.66,0,0,1,509.61,783.16Zm3.35-.67c.39.87.74,1.64,1.08,2.43s.59,1.46.94,2.31l-2.15,2.55c-1.34.1-1.29-1.42-2.2-1.72.1.49.15,1,.29,1.46a14.65,14.65,0,0,0,.59,1.48l-1.24,2.67,1.74-1.42c1.35,1.27,2,3,2.93,4.66a9.88,9.88,0,0,1-3.05,3.26c-2.76-3.11-3.95-7.34-3.38-12.24L510,787C510,785,511.36,783.83,513,782.49ZM532,792a22.08,22.08,0,0,1-4-4.78,25.38,25.38,0,0,1,3.58-3.21c1.11-1,2.25-1.86,3.47-2.85a13.5,13.5,0,0,1,4,4.53A26.68,26.68,0,0,1,532,792Zm8.15-4.58c.56,1,1,1.61,1.3,2.31.5,1.07.93,2.18,1.42,3.33a23.85,23.85,0,0,1-4.62,4.38c-2.26-.43-3.5-2.12-4.8-4C535.45,791,538,789.62,540.19,787.39Zm-4.85-9.18a10.77,10.77,0,0,1-3.65-3.58,8.51,8.51,0,0,1,3.56-2.45,7.14,7.14,0,0,1,3.48,2.91A15.15,15.15,0,0,1,535.34,778.21Zm-1.83,1.49a42.44,42.44,0,0,1-6.62,6,11,11,0,0,1-3.41-4.72,36.25,36.25,0,0,1,6.48-5.06A14.72,14.72,0,0,1,533.51,779.7Zm-8.43,7.62c-.9.87-1.69,1.67-2.51,2.42s-1.69,1.5-2.65,2.34a19.31,19.31,0,0,1-3-5.22,27.58,27.58,0,0,1,4.79-4.42A33,33,0,0,1,525.08,787.32Zm-2.53-7.64a9.74,9.74,0,0,1-2.53-4,13.87,13.87,0,0,1,4.21-3.77,8.71,8.71,0,0,1,3.94,2.6C526.66,776.64,524.59,777.91,522.55,779.68Zm-1.62,1.53-4.45,4.41c-.38-.44-.77-.71-.92-1.11-.43-1.11-.76-2.27-1.13-3.44a15.68,15.68,0,0,1,3.92-4.08C519.52,778.09,520,779.58,520.93,781.21Zm-8,10.12a5.87,5.87,0,0,1,2.65-2.84c1.36,1.24,2,3,3,4.53a5.41,5.41,0,0,1-2.43,2.6C514.53,794.71,514,792.78,513,791.33Zm3,6.82a18.8,18.8,0,0,1,3.38,4.5l-2.7,2a6.83,6.83,0,0,1-3.95-3.38A9.06,9.06,0,0,1,516,798.15Zm1-1.31,2.08-2.06c.37,0,.65,0,.74.06,1.18,1.37,2.32,2.77,3.44,4.12-.33,1.33-1.28,1.66-2.38,2.38A17.21,17.21,0,0,1,517,796.84Zm4-3.22a14.69,14.69,0,0,1,5.4-4.87c1.24,1.5,2.52,3,4,4.75a34.65,34.65,0,0,1-5.61,4.77A15.12,15.12,0,0,1,521,793.62Zm3.46,6.79a18.19,18.19,0,0,1,4.49,3.91l-2.13,1.39a8.66,8.66,0,0,1-4.71-3.14A5.19,5.19,0,0,1,524.43,800.41Zm1.58-.86a6.68,6.68,0,0,1,1-1.27c1.38-1.15,2.81-2.23,4.35-3.44l4.71,4.45a22.74,22.74,0,0,1-5.41,4A9.73,9.73,0,0,1,526,799.55Zm4.43,5.36,2.6,1.37a9.33,9.33,0,0,1-1.6.7c-1,.21-1.91-.15-3.45-.7Zm1.72-.62c.1-.2.16-.47.31-.57,1.74-1.23,3.5-2.42,5.37-3.7l3.92,1.65a22.83,22.83,0,0,1-6.27,4C533.34,805.52,533.34,805.52,532.16,804.29Zm16.23-17.85a19,19,0,0,1-4.14,5.11c-1.33-1.32-1.64-3.3-2.61-4.9a12.35,12.35,0,0,1,4-4.16A14.74,14.74,0,0,1,548.39,786.44Zm1-12.36a6.52,6.52,0,0,1-2.17-2.85c.58-.44,1.06-.81,1.58-1.19a5.43,5.43,0,0,1,1.73,3.12Zm-1.14,1.4a5.23,5.23,0,0,1-2.18,2.93c-1.66-.32-2.07-2.07-3.42-2.85a9.56,9.56,0,0,1,3-2.85A6.36,6.36,0,0,1,548.28,775.48Zm-4.22,5.11c-.68,1.65-2,2.57-3.41,3.87a24.7,24.7,0,0,1-3.82-4.59,15,15,0,0,1,3.68-3.19A13.58,13.58,0,0,1,544.06,780.59Zm1.45-11-2.09-2.27,1.44-1.09a13.48,13.48,0,0,1,1.28.69,8.75,8.75,0,0,1,.92.92Zm-1.7,1.46a10,10,0,0,1-.87,1c-.59.5-1.23.93-1.89,1.42a6.09,6.09,0,0,1-3.22-2.12c1.22-1.44,1.22-1.44,3.65-2.64A4.13,4.13,0,0,1,543.81,771.07Zm-2.2-5.34a7.89,7.89,0,0,1-2.76-1.83c1.49-.47,2.49.34,3.91.86Zm-2.32,1.45a10,10,0,0,1-3.94,2.33,15.07,15.07,0,0,1-3.8-2.7l3.06-1.68C537.66,765.73,537.66,765.73,539.29,767.18Zm-5.88,3.57-3.07,2.36c-1.76-.32-2.78-1.59-3.89-2.78a4.46,4.46,0,0,1,.67-.87c.72-.52,1.48-1,2.24-1.48A6.39,6.39,0,0,1,533.41,770.75Zm-2.51-5.35c-.57.32-1.17.58-1.82.89L527,765.4c0-.21.11-.43.16-.64l3.33-1,.93,1C531.16,765.06,531.06,765.31,530.9,765.4Zm-3.75,1.77a6.17,6.17,0,0,1-2.64,2.1,2.94,2.94,0,0,1-2.33-2C524.12,765.65,525.55,766.29,527.15,767.17Zm-4.73,3.74a14,14,0,0,1-3.37,2.77,4.63,4.63,0,0,1-1.47-3.09l2.21-1.82C520.8,769.4,521.83,769.71,522.42,770.91Zm-7.12-2.4c-5.14-3.87-9.42-8.74-15.27-11.49,4.38,4.43,9.41,8,14.13,12.23-.94,2.27-2.89,3.59-4,5.62a43.17,43.17,0,0,1-7.88-3.38,72.7,72.7,0,0,0-7.62-3.16,58.92,58.92,0,0,0,7.19,4.13c2.39,1.18,4.89,2.18,7.49,3.33-.44,1-.8,1.79-1.2,2.58s-.85,1.62-1.33,2.52c-1.05.09-2.05.15-3.06.29s-1.85.37-2.74.55a44.71,44.71,0,0,1-19.61-6.23,78.61,78.61,0,0,1-23.27-19.88,38.68,38.68,0,0,1-4.75-7.76c-2-4.46-4-8.93-6-13.4-.2-.45-.33-.94-.54-1.57a8.43,8.43,0,0,1,1.75-.94,51.54,51.54,0,0,1,5.23-1.15c8.29-1.27,16.26-.69,24.17.24a44.15,44.15,0,0,1,15,4.54,87.54,87.54,0,0,1,9.27,5.73q4.15,2.81,8,6a60.82,60.82,0,0,1,4.92,4.85A19.32,19.32,0,0,1,519.1,758c.79,1.82,1.69,3.58,2.63,5.54C519.74,765.43,517.47,766.76,515.3,768.51Zm-70.7-29.94,2.94,1.29c.86,1.91,1.71,3.82,2.57,5.72s1.58,3.67,2.5,5.42,2,3.51,3.39,5.8c-3.22-1.51-4.87-3.92-6.71-6.08C446.61,747.56,445.17,743.62,444.6,738.57Zm-2.69,15.95c-1.28,0-1.76-.85-2.35-1.69a20.39,20.39,0,0,1,1.8-5.84C442.13,749.29,441.75,751.87,441.91,754.52ZM445.6,736a2.64,2.64,0,0,1-.14.24l-1.53-.52c-.72-4.49.39-12.34,2.37-16.63l1.69.15c2.37.21,4.73.5,7.12.6a21,21,0,0,0,7.65-1.27c.68-.24,1.36-.4,2.3-.68-1,3.48-1.91,6.68-2.88,10.07-.64.11-1.33.26-2,.33-2.66.28-5.31.48-8,.82a18,18,0,0,0-6.37,2.08,10.46,10.46,0,0,0-1.22.91C444.16,733.88,445.7,734.54,445.6,736Zm-4,5.15a80.24,80.24,0,0,1-3.2,10.53L430.8,749c1.1-3.6,6.62-10.32,10.22-12.34A5.17,5.17,0,0,1,441.56,741.15Zm33.74-32.27c1.13-.25,1.75.73,2.78,1.31A69.42,69.42,0,0,1,480.79,726a5.08,5.08,0,0,1-.57,3.36l-14-1.28c.38-1.38.62-2.45,1-3.5a45.38,45.38,0,0,1,4.84-10.18C473.2,712.65,474.17,710.82,475.3,708.88Zm40.35,41.54a52.36,52.36,0,0,0-9.67-8.55c-2.78-2-5.67-3.89-8.5-5.84-3.81-2.64-8.19-4.18-12.66-5.54l-2.57-.81c0-1.52,0-3-.14-4.47s-.29-3-.52-4.38-.63-2.83-.86-4.27-.86-2.66-.71-4.59a45.52,45.52,0,0,1,12.9,9.22A133.83,133.83,0,0,1,503.56,733a70.06,70.06,0,0,0,5,5.59,48.64,48.64,0,0,1,6.84,9.41c.43.75.73,1.59,1.25,2.76C516.06,750.55,515.78,750.56,515.65,750.42Zm-39.08-45.61c.39-1.75.84-3.58,1.18-5.41s.53-3.64.85-5.87c1,1.13,1.1,2.43,1.53,3.48.49,1.21.89,2.47,1.42,3.65a24.43,24.43,0,0,0,1.68,3.11c.69,1.07,1.46,2.06,2.24,3s1.49,1.71,2.54,2.9C482.83,710.12,479.69,707.67,476.57,704.81ZM440.45,726c.82-1.24,1.73-2.43,3.07-4.3-.64,4.72-1.19,8.71-1.77,13-5.75,3.42-9.93,8.88-13.82,14.73a11,11,0,0,1-4.22.46,27.45,27.45,0,0,1,1.92-2.65c3-3.2,5.27-7,7.77-10.56S438.09,729.53,440.45,726Zm-5.78,5.21c.37-4,.68-7.85-.23-11.92,2.55.92,4.84,1.09,6.67,2.61C439.52,725.4,436.91,728.13,434.67,731.19Zm-5.48,8.3A27.1,27.1,0,0,1,423,747.3a58.78,58.78,0,0,1-12.75,8.75,4.87,4.87,0,0,1-1,.26c-1.14-2.91-2.19-5.58-3.32-8.44a17.55,17.55,0,0,0,8.07-5.33,29.49,29.49,0,0,0,5.36-8.37,16.19,16.19,0,0,0-1.38,1.22c-1.55,1.86-3,3.8-4.64,5.58a36.07,36.07,0,0,1-4,3.74,5.82,5.82,0,0,1-4.28,1.55L404,744.05c2.87-6.41,6.83-12.13,10.41-18.28-1.25.06-1.73.9-2.23,1.6a86,86,0,0,0-6.68,10.92,25.7,25.7,0,0,1-2.49,4.32c-1.68-.66-3-1.76-4.7-2.5a17.15,17.15,0,0,1,.83-2.19q2.61-4.86,5.29-9.7a50.65,50.65,0,0,0,3.07-7.11c-.76.62-1.17.82-1.37,1.15-.86,1.37-1.7,2.75-2.46,4.17-2.09,4-4.14,8-6.22,11.94-.15.29-.37.56-.64,1-2.29.47-4.14-.88-6.54-.58a10.52,10.52,0,0,1,.1-2c.65-2.72,1.38-5.43,2.06-8.15.21-.84.35-1.68.59-2.84-2,2.25-2.18,2.94-4.34,12.92-1.41.72-2.94.78-4.55,1.28a16.63,16.63,0,0,1,.17-11.42,35.34,35.34,0,0,1,10.82-15.71,38.35,38.35,0,0,1,11.14-6.65,22.16,22.16,0,0,1,13.59-1,12.24,12.24,0,0,1,7.33,4.83,35.57,35.57,0,0,1,3.76,6.3C434.05,723.61,433.45,731.4,429.19,739.49Zm-55.82,10.15c1.53-1.15,3.15-2.37,4.78-3.55a4.33,4.33,0,0,1,1.13-.35c-.89,2.6-1.71,5-2.6,7.59-2.09,1.69-4.28,3.44-6.93,5.57C370.54,755.3,372.19,752.64,373.37,749.64ZM365,765.42c-.58.83-1.1,1.69-1.91,2.93-.27-3.69,1.44-6.61,2.86-9.54,2-4.13,2.4-4.55,4.8-6.16a11.73,11.73,0,0,1-.35,1.35c-.61,1.47-1.38,2.91-1.85,4.41A24.51,24.51,0,0,1,365,765.42Zm25.6-8.88c-1.49,1-3.14,1-5.15,1.6.18-2.84.33-5.31.49-7.77a8.77,8.77,0,0,1,4-1.47C390.87,751.14,391,752.33,390.64,756.54Zm1.79-7.85c.89-1,1.88-.85,3-.86a22.19,22.19,0,0,1,2.08,8,22.33,22.33,0,0,1-4.9.58C392.52,753.65,392.48,751.21,392.43,748.69Zm-7.86,6c-.09,1.17-.28,2.36-.44,3.69a58.48,58.48,0,0,1-7.79,3.33,33.38,33.38,0,0,1,1.14-6.77,23.47,23.47,0,0,1,7.14-4.13A11.21,11.21,0,0,1,384.57,754.73Zm-.6,5.68c-.32,3-.59,5.62-.88,8.36L375.24,773c-.57-3,.33-5.88.55-8.73A27.31,27.31,0,0,1,384,760.41Zm1.3-.17c2.23-1.28,2.52-1.37,5.33-1.62a50.27,50.27,0,0,1-.06,6.81,27.46,27.46,0,0,1-5.81,2.34C384.92,765.12,385.09,762.65,385.27,760.24Zm7,1.36c0-1.07.1-2.15.17-3.48a13,13,0,0,1,5.21-.65,13.17,13.17,0,0,1,.07,6.13,28.64,28.64,0,0,1-5.21,1.22A7.21,7.21,0,0,1,392.24,761.6Zm5.09,3.93a44.34,44.34,0,0,1-1.53,8.66c-.84.28-1.63.58-2.43.8s-1.41.28-2.25.45c.37-3,.72-5.79,1.1-8.86A10.21,10.21,0,0,1,397.33,765.53Zm2.05-8c2.65-.25,4.49.72,6.33,1.5.49,2.74.49,2.74-.26,5.19a4.72,4.72,0,0,1-1.17.13c-1.56-.19-3.11-.42-4.77-.66C399.47,761.71,399.43,759.81,399.38,757.53Zm-.19-1.66c-.73-2.45-1.49-5.06-2.26-7.68,1.94-.81,2.16-.8,4.89.1,3.09,5.4,3.58,6.64,3.51,9.21Zm-.79-10c-.8,0-1.59-.05-2.42-.08a5.41,5.41,0,0,1-.73-.88,12.14,12.14,0,0,1-.56-1.69,12.56,12.56,0,0,1,4.64,1.93C399.2,745.82,398.75,745.81,398.4,745.82Zm-4.07-.23c-.65.81-1.45.7-2.34.76a5.15,5.15,0,0,1-.91-3.23,6.28,6.28,0,0,1,1.77,0C393.61,743.46,393.57,743.55,394.33,745.59Zm-4.77,1c-1,1.11-2.13,1-3.18,1.49l-.84-2.52c.22-.73.44-1.46.69-2.33l2.06-.18a11,11,0,0,1,.57,1.15C389.11,745,389.32,745.77,389.56,746.61Zm-4.05-1.06c-.21,1-.42,1.91-.68,3.12-1.89,1.16-4,2.11-6.19,3.44a17.25,17.25,0,0,1,2.43-7.67,6.71,6.71,0,0,1,3.61-1C385,744.15,385.24,744.85,385.51,745.55ZM366.41,766c-.14,1.18-.27,2.23-.4,3.35l-2.15,2.16-.55-.76C364.46,767.8,364.73,767.38,366.41,766Zm2.27-3.78a29.64,29.64,0,0,1,6.61-5.85c.21.06.35.07.36.12.11,2-.7,4.07-1,6.28l-6.45,4.66C367.84,765.56,367.84,765.56,368.68,762.23Zm-3,9.87c.28,2.87.51,5.29.75,7.73-.29,0-.44.12-.48.08-1.25-1.57-.82-3.92-1.71-5.65Zm1.8-1.41c2.3-2.75,4.68-4.54,6.63-5-.1,1-.17,2-.29,2.94-.22,1.84-.47,3.68-.72,5.63l-4.66,3.78C367.27,775.7,367.48,773.13,367.48,770.69Zm5.4,5.23c.62,1.6.28,3.41.73,5.16a18.78,18.78,0,0,1-3.9,1.88,9.12,9.12,0,0,1-1.13-3.61A15.18,15.18,0,0,1,372.88,775.92Zm.86,7.3c.16.72.27,1.27.39,1.8-.26.19-.46.42-.56.4-.71-.16-1.41-.37-2.26-.61C371.85,783.68,372.67,783.62,373.74,783.22Zm2-2.7c-.85-2.48-.91-3-.67-6a31.94,31.94,0,0,1,7.57-3.92c.27,2.68-.39,5.24-.91,7.9A27.25,27.25,0,0,1,375.72,780.52Zm5.16.19c.08,2.47-.14,3.35-1.49,5.84l-2.59-.16c-.23-.68-.45-1.23-.6-1.81s-.22-1.21-.36-2A14.79,14.79,0,0,1,380.88,780.71Zm2.92-3.07c.28-2.75.54-5.33.79-7.79a11.44,11.44,0,0,1,5.83-2.48,24.06,24.06,0,0,1-1.05,8.42A15,15,0,0,1,383.8,777.64Zm2.14,1.05c.8-.29,1.61-.51,2.9-.91a30,30,0,0,1-3.37,8.64,18,18,0,0,1-1.81.35,13,13,0,0,1-1.6,0,62,62,0,0,1,1.48-7C384.38,779.36,385.15,779,385.94,778.69Zm4.69-1.37a11.62,11.62,0,0,1,4.59-1.4,7,7,0,0,1-.71,3.67c-.35,1.08-.75,2.14-1.2,3.44a13.36,13.36,0,0,1-6.18,3.07C388.39,783,389.47,780.23,390.63,777.32Zm7.14-2.09a11.22,11.22,0,0,1,3.84-1.16c.51.42.25.87,0,1.23a17.44,17.44,0,0,1-4.52,4.86C396.86,778.45,397.73,776.9,397.77,775.23Zm.52-1.76a48.66,48.66,0,0,1,1-7.8,3.49,3.49,0,0,1,1.05-.26c1.55.21,3.09.47,4.7.72a15.43,15.43,0,0,1-1.86,6.22A11.76,11.76,0,0,1,398.29,773.47Zm3.6-68.06a42,42,0,0,0-15.39,13.18,5.12,5.12,0,0,1-.69.6l-3.31-2c-1.07-.63-2.16-1.24-3.22-1.89s-2.08-1.38-3.13-2a22.86,22.86,0,0,0-6.53-3,127.45,127.45,0,0,1-15.83-5.71c-4.19-1.72-8.51-3.16-12.78-4.74-.61-.23-1.21-.52-2-.87.33-.67.47-1,.61-1.26l.34-.12a.74.74,0,0,1,.29,0c4.13.7,5.86-.28,8.17-4.67l.36-.61c.87-.3,1.25.36,1.7.8a36.69,36.69,0,0,0,8.73,6.85c.24.87.42,1.68.69,2.44a4.32,4.32,0,0,0,2.68,2.88c.63.22,1.18.63,1.8.87a6.37,6.37,0,0,0,5.36-.28,7,7,0,0,0,3.76-4.22,7,7,0,0,1,.57-1,18.23,18.23,0,0,1,6.26.12c5.77.87,11.51,1.82,17.26,2.77,1.63.27,3.24.65,5.07,1C402.26,705,402.11,705.3,401.89,705.41ZM382,727c-1-1.73-1.4-3.56-2.26-5.06l-2.64-4.62a21,21,0,0,1,7.3,3.85c.18,1-.55,1.87-1,2.78S382.56,725.75,382,727Zm-41.35-17.37c-2.47-.2-5-.24-7.61-.35a34.16,34.16,0,0,1,4.29-6.4c3,.23,13,3.63,17,5.73-.06.1-.11.27-.18.29-1.93.58-3.86,1.14-5.46,1.61C345.75,710.17,343.2,709.81,340.63,709.61Zm2.14,3.72-3.28,2.84-13,1c.84-2,2.29-3.09,3.31-4.39A35.14,35.14,0,0,1,342.77,713.33ZM341,688.39c-.44-1.58-.07-3.41-.13-5.29a14.15,14.15,0,0,1,4.66,5.62Zm31.86,9.78c-2.76-2.59-6.39-3-10.47-1.64-1-1.38-2.95-6.12-4.27-10.4a11.26,11.26,0,0,1,1.44-.45,43.24,43.24,0,0,1,16.23.43,5.29,5.29,0,0,1,2.32,1.09c6.54,5.65,13.82,10.24,21.09,14.85.22.15.42.33.88.7C390.92,701.1,382.45,698.17,372.89,698.17Zm-14.8-5.4c.32.93.58,1.9.83,2.73-.6.77-.94.42-1.2.22-1.07-.8-2.12-1.63-3.13-2.5a79.67,79.67,0,0,1-14-16.14,7.45,7.45,0,0,1-.52-1.06,3.2,3.2,0,0,1,0-.66,4,4,0,0,1,1,0c2,.7,4,1.45,6,2.15a11.81,11.81,0,0,1,5.8,4.54A41.05,41.05,0,0,1,358.09,692.77Zm-78.77,25c.54-.58.68,0,.88.18a10.18,10.18,0,0,0,4.79,2.54,34.94,34.94,0,0,0,20.22-.93,30.92,30.92,0,0,0,9.52-5.33,70.33,70.33,0,0,0,9.34-9.63c2.45-2.91,4.83-5.89,7.11-9a35.34,35.34,0,0,0,5.06-9c.19-.52.46-1,1-2.2a15.33,15.33,0,0,1,0,2c-.18,1.1-.48,2.19-.62,3.28-1,7.47-4.57,13.89-9.77,19.61-2.32,2.56-4.79,5-7.15,7.47-.83.88-1.56,1.87-2.32,2.82a1.14,1.14,0,0,0,.49-.21c4.65-4.36,9.37-8.64,13.33-13.77a36.3,36.3,0,0,0,6.68-14.07c.37-1.58.82-3.16,1.24-4.74a1.77,1.77,0,0,1,.29.7,28.33,28.33,0,0,1-6.22,18.19,176.37,176.37,0,0,1-13.9,15.84,30.33,30.33,0,0,1-6.43,5.24c-2.41-.63-4.94-1-7.66.17-.9-.65-1.53-1.61-2.78-1.56a2,2,0,0,0-1.39,1.71c-.16,1.07-.14,2.14-.21,3.45a6.53,6.53,0,0,1-1.53.51c-2.77.24-5.5.35-7.94-.83a9.93,9.93,0,0,1-5-5c-.53-1.18-1.1-2.33-1.58-3.34C282.81,720.57,280.07,720.52,279.32,717.79Zm2.28,6.08,1-.27.72,1.27C281.91,725.7,282.22,724.1,281.6,723.87Zm46.09,27c-9.23-1.3-18.73-1.3-28.23-1.26a10,10,0,0,1-6.9-2.61,55.17,55.17,0,0,1-9.06-10.48c-.82-1.19-1.63-2.4-2.26-3.32l1.95-6.83c.24.06.6,0,.75.21a13.79,13.79,0,0,1,.94,1.48,11.83,11.83,0,0,0,10.43,5.83c1.4,0,2.83-.08,4.42-.13a11.2,11.2,0,0,1,.36,1.41c.35,2.8,2.12,3.93,4.61,4.07,1.59.1,3.23,0,4.86-.08l1.52,0a59.35,59.35,0,0,0,5.14,5,33.45,33.45,0,0,0,6.14,3.69c2.15,1,4.5,1.67,6.8,2.5A1.28,1.28,0,0,1,327.69,750.89Zm5.18-2.9c-2-.48-3.95-1.06-5.95-1.51a14.73,14.73,0,0,1-6-2.75,19.5,19.5,0,0,1-6-6.87c1.29-2.92,1.32-5.82-.35-8.21l9.74-9.28a109.38,109.38,0,0,1,13.39-1.49c-7.21,10.68-8.9,20.51-3.48,29.74C333.76,748.43,333.27,748.09,332.87,748Zm5.79,1c-6.41-6.45-6.65-17.89-.57-26.9a21.9,21.9,0,0,1,9.68-8.28,32.49,32.49,0,0,1,8-2.32,15.88,15.88,0,0,1,5.42.07,32.05,32.05,0,0,1,8.81,2.93,16.43,16.43,0,0,1,3.88,2.91,27.16,27.16,0,0,1,6.59,11,8.82,8.82,0,0,1,.44,4,15.89,15.89,0,0,0,.39,7.57c.06.15-.07.41-.12.73l-5.91,3.8c-1.21-5.07-2.21-10-5-14.59a6,6,0,0,0,.34,3.15c.2.8.46,1.57.7,2.34s.56,1.75.83,2.62.49,1.55.71,2.33.47,1.79.72,2.68.45,1.56.63,2.17a13.62,13.62,0,0,1-3.38,3.12,13,13,0,0,1-1.66-1,47.31,47.31,0,0,1-9.57-11.19c-.52-.81-1.17-1.51-1.76-2.27l-.33.15c.14,2,1.19,3.41,2.11,4.9a38.1,38.1,0,0,0,8.35,9.13c.37.3.71.63,1,1,.07.06.08.18.15.34-.38,1.41-1.74,2-2.31,2.9a3.33,3.33,0,0,1-3.14-.28A38.78,38.78,0,0,1,356,747.5c-.83-.64-1.72-1.2-2.61-1.76a3.27,3.27,0,0,0-.85-.25c.54,2,1.29,2.94,5.22,5.34,2.18,1.34,4.56,2.38,6.86,3.56-.36.71-.84.56-1.31.47a56.83,56.83,0,0,0-14.58-1.26,7.49,7.49,0,0,1-2.64-.33A17.84,17.84,0,0,1,338.66,749ZM325.88,798.8c-4.58-5.44-6.21-12.32-5.37-20.28A16.49,16.49,0,0,1,326,767.81a48,48,0,0,1,5.57-4.47,62.57,62.57,0,0,1,12.71-6.28,9.09,9.09,0,0,1,4.28-.73l14.27,1.74c0,1.5-.75,2.63-1.32,3.84-3.33,1-6.55.25-9.78,1.74,0,0,0,.19-.09.49a7.7,7.7,0,0,0,2.84.07c1.11,0,2.24-.11,3.36-.14s2,0,3.2,0c-.13,1.38-.25,2.67-.35,3.87a3.73,3.73,0,0,1-2.79,1c-5.63.41-10.79,3.12-15.85,6.31a5.44,5.44,0,0,0-.9.84,9.52,9.52,0,0,0,1.66-.47c1.79-.81,3.56-1.7,5.35-2.55a26,26,0,0,1,12.36-2.3,29.55,29.55,0,0,1,.95,6.41c-.89.43-1.68.81-2.47,1.17a31.19,31.19,0,0,0-7.81,5.22,12.92,12.92,0,0,0-1.4,1.7c.78-.51,1.57-1,2.35-1.55,3.08-2.11,6.19-4.09,9.81-4.73l2.75,5a16.23,16.23,0,0,1-2.42,4.05c-3.33,4.3-6.77,8.48-11.1,11.74a18.7,18.7,0,0,1-5.81,3.1,27.1,27.1,0,0,1-9.21,1.26A14,14,0,0,1,325.88,798.8Zm1.51,38.83-1.68,1.54.11.05c-2.22,1.19-7.69,4.24-8.51,4.68a41.11,41.11,0,0,1-11.54,4.1,109.13,109.13,0,0,1-27.47,1.52,3.35,3.35,0,0,1-2.57-.92,5.67,5.67,0,0,1,.35-1.74c1.2-2.35,2.4-4.72,3.79-7,1.88-3,3.88-6,5.93-8.95a65.27,65.27,0,0,1,41.53-26.62,46.81,46.81,0,0,0,5.27,1.93,28,28,0,0,0,5.31.61,51.65,51.65,0,0,0,6.41-.61l-9.83,8c-.62.5-1.27,1-1.89,1.45a29.83,29.83,0,0,1-14.5,6.34c-2.87.41-5.74.62-8.62,1-1.74.25-3.49.68-5.23,1.1a6.76,6.76,0,0,0-1.38.72c.08.24.08.36.14.43a.39.39,0,0,0,.26.09,7.16,7.16,0,0,0,.92,0l13.87-2.09c1-.16,2.05-.38,3.07-.56.06,0,.11.13.28.34-.57.35-1.09.73-1.63,1-4.73,2.38-9.43,4.88-14.21,7a61.25,61.25,0,0,1-7.95,2.55c-2,.62-4.1,1.14-6.15,1.74-.55.16-1.1.47-2.22,1a8.08,8.08,0,0,0,4.1-.26c1.12-.22,2.23-.52,3.71-.87l-1.2,1.53c.15.08.32.26.44.22,2.21-.9,4.43-1.79,6.62-2.76,1.59-.7,3.15-1.51,4.72-2.26.31.68-.28.8-.52,1.06a6.84,6.84,0,0,1-.8.62c-1.12.94-2.51,1.52-3.23,3l0,.13a5.54,5.54,0,0,0,2.82-1.55c2.15-1.64,4.24-3.39,6.38-5a20.57,20.57,0,0,1,3-2.08,113.8,113.8,0,0,0,18.26-11.72c.44-.34.91-.64,1.37-1a.48.48,0,0,1,.18.35q-3.82,4-7.62,8c-.91,1-1.79,2-2.69,3a1.73,1.73,0,0,0,1.44-.49c2.75-2.87,5.51-5.74,8.2-8.68a8,8,0,0,0,1.07-1.66,3.37,3.37,0,0,0,.5-.42,79.88,79.88,0,0,1,9.71-9.16A11.14,11.14,0,0,1,348,805a24,24,0,0,0,5.91-3.78c.42-.35.89-.62,1.75-1.21l-2.32,6.77c-.8.62-1.51,1.18-2.23,1.71a59.44,59.44,0,0,0-14.45,15C333.67,828,330.73,832.54,327.39,837.63Zm51.4,3.83a144.13,144.13,0,0,1-11.66,14.15,78.5,78.5,0,0,1-21.7,16c-8.35,4.34-16.83,8.15-25.4,11.62a16.07,16.07,0,0,1-5.92,1.55,11.24,11.24,0,0,1,.18-1.72q3.42-12.36,6.88-24.72a91.79,91.79,0,0,1,9.76-22.6,144.31,144.31,0,0,1,10.31-15.19,55.25,55.25,0,0,1,9.85-9.55,11.82,11.82,0,0,1,1.33-.78,4.65,4.65,0,0,1,.22,1.21A38.36,38.36,0,0,0,354.27,828a2.11,2.11,0,0,1,0,.51c-4.36,3.17-9.24,5.61-13.45,9.42.51.62,1,0,1.32-.25,3.3-2.13,6.57-4.3,9.86-6.45.93-.6,1.88-1.14,2.88-1.74.39.52.7.88.95,1.29s.55,1,.79,1.48A56.45,56.45,0,0,1,347,843.75c-2.55.07-11.16,5.6-14.28,9.31,2.22-2.19,11.06-6.71,14-8.19a4.33,4.33,0,0,1-.89,1.42c-2.53,3.14-5.09,6.27-7.62,9.42q-2.92,3.64-5.8,7.34a15.15,15.15,0,0,0-1,1.87,5.22,5.22,0,0,0,2.3-1.83c3.28-3.72,6.73-7.3,9.71-11.25l1.74-2.3c-.11,2.78-.58,12.42-2.2,15.07,1.56-2.31,3.55-13.69,3.35-16.6q2.08-2.79,4.19-5.57,2.94-3.87,5.91-7.7a9.79,9.79,0,0,1,1.12-1c.91.34.68,1.07.55,1.69-.9,4.25-1.41,8.53-2.79,12.75a15.57,15.57,0,0,0-.37,1.63c.8.15,1-.55,1.12-.93.66-1.92,1.33-3.86,1.8-5.8.42-1.74.58-3.5.89-5.24.13-.74.33-1.48.57-2.48.81.36,1.43.57,2,.88a24.3,24.3,0,0,0,8.87,2.74,17,17,0,0,0,10.92-1.85,2.1,2.1,0,0,1,.6-.19c.09,0,.18.06.42.16C381,838.54,379.86,840,378.79,841.46Zm15.94-31c.54,3.34-.4,6.67-1.25,10a6.5,6.5,0,0,1-1,1.81,42.4,42.4,0,0,1-12.61,11.91,12.8,12.8,0,0,1-3.59,1.46c-4.55,1.25-13.07-.7-16.23-4.3a16.17,16.17,0,0,1-3.88-7.24,37.27,37.27,0,0,1,1.88-22.74c1.21-2.94,2.78-5.78,4.22-8.66a8.33,8.33,0,0,1,1-1.39l4-5a3.39,3.39,0,0,1,2.2,1.49c-.39,1-.75,1.91-1.15,2.84a40.77,40.77,0,0,0-2.67,9.38,3.24,3.24,0,0,0,.06.93l.27-.08c.35-.95.75-1.89,1.06-2.85.66-2,1.26-4.1,1.92-6.14a18.28,18.28,0,0,1,.9-2.21,8.93,8.93,0,0,1,.84-1.21c1.46-.06,2.58.7,4,1.07a57.09,57.09,0,0,0-3.08,8.34,32.43,32.43,0,0,0-1.28,8.84,14.66,14.66,0,0,0,1.05-2c.83-2.93,1.55-5.86,2.42-8.78.57-1.92,1-3.94,2.44-5.52,1.55-.85,2.84-.28,4.41-.19a12.56,12.56,0,0,1-.32,1.6,45.51,45.51,0,0,0-2.2,12.39,5.77,5.77,0,0,0,.3,1.3c1.75-5.2,1.73-10.17,3.77-15l7.45-1.37a45.86,45.86,0,0,1,2.23,7.32,10.65,10.65,0,0,0,.32,1.51C393.85,801.9,394.05,806.29,394.73,810.5Zm8.43,13.92a11.66,11.66,0,0,1,.09-1.67A72.93,72.93,0,0,1,407,810.83a14.41,14.41,0,0,1,.9-1.57,8.78,8.78,0,0,1,1.5.1c.65.16,1.26.42,2,.68-.47,2.44-2.07,4.4-2.81,6.61s-1.59,4.45-2.41,6.73Zm8.49,2.22a18.6,18.6,0,0,0-1.33-1.8,15.34,15.34,0,0,0-1.65-1.32,38.89,38.89,0,0,1,4.51-13.42l7.29-.43C419.69,813.69,414.66,823.35,411.65,826.64Zm29.82-36.75c-1.92,2.74-3.92,5.44-6.05,8a31.2,31.2,0,0,1-7.49,6.43,20.44,20.44,0,0,1-8.11,3.15l-2.16.3c-6.46.86-12-.66-16.36-4.82a36.27,36.27,0,0,1-7.25-9,27.49,27.49,0,0,1-1.48-3.26,24,24,0,0,1-.64-2.51c2-1.36,3.88-2.72,6-3.89a28.4,28.4,0,0,0,8.32,9.65,42.21,42.21,0,0,0,5.3,2.87,5.3,5.3,0,0,0,1.36.2c-.43-1.22-1.25-1.51-1.92-2-2-1.33-4-2.61-5.91-4a23.81,23.81,0,0,1-5.5-6.3,9.56,9.56,0,0,1-.6-1.49l4-4.05c2.85,2.07,5.14,4.68,8.22,6.21-2-2.9-5.17-4.47-7.51-7.1l3.13-6a8.61,8.61,0,0,1,2,0,22.66,22.66,0,0,1,4.18,1.25,42.29,42.29,0,0,1,9.67,5.63c1.08.88,2.3,1.59,3.74,2.58-1.19-2.76-4.08-5.19-8.49-7.53A28.93,28.93,0,0,0,407.32,771a21.45,21.45,0,0,1,1.54-5.22,8.86,8.86,0,0,1,4.34-1.36c2.76-.25,5.51-.34,8.26-.54.78-.06,1.57.25,2.37-.43-2.34-2.19-7.93-1.54-14.41,0a16.93,16.93,0,0,1,0-4c3.3-1.54,6.4-3.57,9.76-4.73q2.44-.84,4.9-1.57c5.83-1.72,10.76-.78,14.58,3.22A26.67,26.67,0,0,1,446,775.62,24.78,24.78,0,0,1,441.47,789.89ZM449,776c-.18-2.09-.22-4.11-.55-6a34,34,0,0,0-1.43-5.66c-.63-1.8-1.53-3.46-2.52-5.64-.44-3.53-.66-7.66-.88-12.34a7.65,7.65,0,0,1,1.06,1.06,29.94,29.94,0,0,0,12.65,11.89,11.36,11.36,0,0,1,3.32,2.69,93.9,93.9,0,0,0,17.94,14.69c4,2.64,8.63,4.18,13.17,5.85l2.37.91c-.3.36-.42.63-.58.69-2.3,1-4.62,1.87-6.88,2.77-2.51-1.59-4.86-3.22-7.35-4.62-5.63-3.18-11.62-5.46-18.57-5.51C456.86,776.73,453,776.28,449,776Zm14.9,7.18c-2.67-.8-5.38-1.5-8.06-2.29a19.23,19.23,0,0,1-2.29-1c.18-.09.36-.23.51-.22,3.42.13,6.84.23,10.23.45a25.67,25.67,0,0,1,9,2.52c3,1.34,5.76,3,8.62,4.59a5.4,5.4,0,0,1,1,.79,2,2,0,0,1,0,.53.63.63,0,0,1-.19.28c-3.46,2.28-6.93,4.55-10.33,6.77-5.29-.16-18.11-8.36-21.45-14.21.52-.57.91-.1,1.29,0,5.15,1.17,10.29,2.38,15.45,3.54a4.46,4.46,0,0,0,1.35-.07C467.28,784.3,465.63,783.69,463.93,783.19Zm-14.41-.65c1.81,1.89,3.21,3.47,4.72,4.91a48.8,48.8,0,0,0,4.57,3.93,51.36,51.36,0,0,0,5.29,3.42c1.72,1,3.55,1.77,5.53,2.74l-10.32,9.22C455.78,802.2,450.63,789.62,449.52,782.54Zm-.13,87.56c-2.11,3.44-4.28,6.86-6.59,10.16-1.51,2.17-3.32,4.13-5,6.15-.19.23-.54.3-.91.49a9,9,0,0,1,.08-1c1-4.9,2-9.8,2.94-14.71a92,92,0,0,1,4.83-16.51c.33-.83.77-1.63,1.35-2.83l4.71.5c0,2.42-1.12,4.62-1.75,6.86s-1.36,4.24-2.14,6.62a4.7,4.7,0,0,0,1.84-2.75c1-2.78,1.93-5.57,2.91-8.35.26-.73.56-1.45.87-2.23a23.74,23.74,0,0,1,4.82-.63c.59.37.26.84.18,1.24a7.67,7.67,0,0,1-.4,1.29A101,101,0,0,1,449.39,870.1Zm30-18.46a204.94,204.94,0,0,1-8,31.6A56.6,56.6,0,0,1,466,895.1c-.68,1.07-1.44,2.09-2.19,3.12-.38.52-.82,1-1.6,1.93a11.67,11.67,0,0,1,.08-1.68c.38-1.52.82-3,1.2-4.56a121.77,121.77,0,0,0,2.79-15.06A126.84,126.84,0,0,1,471.11,858a57.26,57.26,0,0,1,4.64-10.31c.08-.14.34-.2.66-.38a8.82,8.82,0,0,1-.35,3.49c-.68,3.16-1.43,6.32-2.1,9.48-.19.91-.24,1.82-.34,2.73a23.68,23.68,0,0,0,1.1-2.61,62.07,62.07,0,0,0,2.66-12.73c0-.44.13-.88.23-1.49l2.08-.8a14.91,14.91,0,0,1,.16,2A36,36,0,0,1,479.41,851.64Zm25-12.26a30.05,30.05,0,0,1,4.3,3.32c2.14,2,4.16,4.24,6.21,6.4a12.41,12.41,0,0,1,1,1.52,13.57,13.57,0,0,1-6.38,2.39,33.78,33.78,0,0,1-14.56-.92,20.79,20.79,0,0,1-9.16-5.2,7.85,7.85,0,0,1-2.16-3,5.58,5.58,0,0,1,3-1.52l8.79,2.8a1.78,1.78,0,0,0,1.68,0l-4.71-2-3.4-1.39c1.33-1.45,2.83-1.71,4.1-2.47s2.72-1.48,4.05-2.2A12.86,12.86,0,0,1,504.42,839.38Zm-.78-10.61a59.4,59.4,0,0,1-14.93,9.57c-3.4,1.5-6.8,3-10.22,4.38a145,145,0,0,1-19,6.07,32.25,32.25,0,0,1-15.95,0c-3.13-.75-6.15-1.84-9.69-1.75a6.93,6.93,0,0,1,.14-1.69,29.26,29.26,0,0,1,1.48-3.46,137.94,137.94,0,0,1,40.58-47.1A80.42,80.42,0,0,1,497.57,784l8,0a11.75,11.75,0,0,1,0,1.45c-.19,1.63-.42,3.26-.66,5.13-.72.24-1.5.58-2.28.77a55.44,55.44,0,0,0-26.2,14.23c-.33.31-.64.66-.95,1a1,1,0,0,0-.1.32c.49.35.91-.11,1.32-.39,2.88-2,5.73-4,8.62-6a54.68,54.68,0,0,1,19.55-8.33c.61,1.16.57,2.6,1,3.83s.8,2.49,1.25,3.9c-6.26,5.26-13,9.47-19.1,15,6.79-3.93,13.06-8.95,19.44-14.13a19.72,19.72,0,0,1,2.58,3.11c.81.91,2.08,1.39,2.52,2.85-4.41,4.22-9.47,7.38-13.88,11.54.41.52.78.13,1.11-.08a91.66,91.66,0,0,0,10.85-8.14c1-.89,2.08-1.76,3.17-2.68a31.5,31.5,0,0,1,4.94,2.09c-.31.63-.51,1.14-.79,1.61C513.94,817.64,509.44,823.75,503.64,828.77Zm18.85-21.61a17.74,17.74,0,0,1-4.62-1.45,5.65,5.65,0,0,1,2.53-2.16l3.26,2.83A.91.91,0,0,1,522.49,807.16Zm43.35,14.07a117.89,117.89,0,0,1,0,29.91,91,91,0,0,1-5.72,22.09c-.81,2-1.59,4-2.42,6a14.17,14.17,0,0,1-.83,1.45,7.08,7.08,0,0,1-4-.88,53,53,0,0,1-19.4-14.52,77.26,77.26,0,0,1-8.95-12.59,66.49,66.49,0,0,1-7.31-25.12,41.24,41.24,0,0,1,.54-10.93l3.87-6.63a17.28,17.28,0,0,1,4.87.25l0,.06c.61-.19,1.21-.42,1.81-.55,1.95-.45,3.89-.85,6-1.31.57,1.22.38,2.79.73,4.15s.56,2.84.89,4.25.69,2.79,1.06,4.17.77,2.76,1.2,4.11.9,2.7,1.38,4a7.44,7.44,0,0,0,2,3.48c-.18-.74-.34-1.49-.54-2.22-1.61-5.7-3.28-11.38-4.83-17.1a10.92,10.92,0,0,1-.52-5.33l7.92-4.74a10.3,10.3,0,0,1,1,1.66c1.18,3.11,2.31,6.24,3.46,9.36a26.36,26.36,0,0,0,1.45,3.61c.09-2.86-.23-4.65-1.63-8.44-.9-2.45-1.93-4.82-2.94-7.32,1.55-1.84,3.2-3.6,4.61-5.55s2.38-3.85,3.66-5.94c2,2.21,3.83,4.26,5.64,6.38a20.62,20.62,0,0,1,3.43,6.89A86.88,86.88,0,0,1,565.84,821.23Zm32.78-17.58a28.63,28.63,0,0,1-14.3,2.16,59.5,59.5,0,0,1-14.58-3.25,27.92,27.92,0,0,1-6.86-4.12,2.36,2.36,0,0,1-.59-.63,37.09,37.09,0,0,0-5.57-6.64,18.18,18.18,0,0,1-2.27-3,5.78,5.78,0,0,1-.26-2,16.16,16.16,0,0,1,2-.29c3.73,0,7.45.11,11.19.08,2.83,0,5.68-.15,8.53-.32s5.93-.53,8.88-.65a58.57,58.57,0,0,0,15.35-2.63c.59-.19,1.19-.29,2.26-.55-4.36,7.51-5.06,14.24-2.17,20.5C599.88,803.33,599.19,803.42,598.62,803.65ZM637,767.88a20.24,20.24,0,0,1,11.34,1.6,5.08,5.08,0,0,1,3.35,4.43,33.07,33.07,0,0,1,.13,9.28c-.24,1.53-.45,3-.66,4.58a23.06,23.06,0,0,1-6.13,12.39,38.82,38.82,0,0,1-3.43,3.36q-3.36,2.93-6.82,5.69a32.16,32.16,0,0,1-9.18,5.33c-6.55,2.35-12.43,1.78-17.68-1.39a27,27,0,0,1-3.06-2.14c-2.07-1.65-2.74-3-3.3-6.47,1.29-.7,2.43-1.39,3.6-1.95a40.67,40.67,0,0,0,8-4.75c1.68-1.35,3.23-2.89,4.8-4.39a10.18,10.18,0,0,0,1.09-2c-5.62,4-10.4,8.1-16.16,10.16a7.67,7.67,0,0,1-2.07-4.86,22.55,22.55,0,0,1,.92-9.08,12.5,12.5,0,0,1,2.72-4.75c.84-.94,1.76-1.8,2.2-2.24,5.2-2.44,9.88-4.57,14.52-6.84,2.36-1.15,4.68-2.49,7-3.86a10.5,10.5,0,0,1,4.2-1.56C634,768.3,635.49,768.12,637,767.88Zm10.12-14.42a34.33,34.33,0,0,1-4.07,3.67c-10.5,7.76-21.38,14.65-33.05,19.39-8.49,3.46-17.06,6-25.74,6.26-2.64.07-5.33.49-8,.65q-4.89.29-9.77.42c-3.25.09-6.49.09-9.73.12-.59,0-1.17-.07-1.84-.11a18.54,18.54,0,0,1,.72-5.62v0c0-.1-.07-.2-.1-.3q9.88-2.86,19.78-5.79c1.43-.43,2.84-1,4.25-1.54.3-.12.88-.15.77-1-.89.19-1.79.31-2.68.59q-11.19,3.45-22.37,7a12.7,12.7,0,0,1-.53-5.49,14.78,14.78,0,0,1,1.83-1.27c2.26-1.14,4.54-2.26,6.83-3.3,6.07-2.77,12.17-5.48,18.25-8.24,1.06-.48,2.09-1.08,3.6-1.86-3.2.29-6.44,1.5-16.07,5.92-5.16,2.37-10.4,4.49-15.2,7.7l-5.27-7.31c.85-.94,1.64-1.91,2.51-2.79a173.84,173.84,0,0,1,14.47-13.13,47.06,47.06,0,0,1,14.79-8.09,83.45,83.45,0,0,1,17.23-4.06,64.3,64.3,0,0,1,8.85-.4,111.42,111.42,0,0,1,27.8,4.2,16.19,16.19,0,0,1,6.52,3.56c2.28,2,4.61,4,6.89,6.08a14.53,14.53,0,0,1,1.21,1.41A5.08,5.08,0,0,1,647.15,753.46Zm-31.09-25.91c12.67-.16,25.45-1.16,38.08-1a45.87,45.87,0,0,1,9.49.94,29.07,29.07,0,0,1,15.14,8.88c-1.48.74-2.83,1.44-4.18,2.08s-2.78,1.31-4.19,1.9c-1.61.66-3.23,1.23-4.84,1.88a17.05,17.05,0,0,0-5.63,3.38c-.65-.51-1.49-.28-2.29-.2a32.86,32.86,0,0,1-7.82-.24,7.1,7.1,0,0,1-3.86-1.82c-.36-.32-.7-.65-1-1-3.62-3.78-8.23-5.84-13.42-6.89l-5.08-1L615.35,728C615.59,727.84,615.85,727.55,616.06,727.55Zm-48,.18a62.63,62.63,0,0,1,11.66.75c3.9.7,8,.41,12.08.15a36.36,36.36,0,0,1,6.93.17,20.11,20.11,0,0,0,5.14,0c3.32-.47,6.14.51,8.92,1.59a36.57,36.57,0,0,1,3.78,2c-.3.71-.73.58-1.11.57-3.11-.14-6.2-.34-9.32-.4-6.92-.14-13.9,1.31-20.88,3.34-1.22.36-2.45.75-4,1.23a59.41,59.41,0,0,0-14.24-8.6C567.21,727.69,567.61,727.73,568,727.73Zm10.79,9.89c-1.43,1.3-3,1.55-4.42,2.4s-2.72,1.51-4,2.36-2.81,1.85-4.15,2.89-2.61,2.2-3.89,3.34-2.37,2.14-3.55,3.22l-4,3.7a5.49,5.49,0,0,1,1.18-2.57c.44-.81.94-1.59,1.4-2.39s.9-1.6,1.34-2.41.91-1.6,1.31-2.43.84-1.87,1.27-2.81.81-1.65,1.16-2.49.66-1.7,1-2.55.59-1.71.88-2.57.54-1.72.82-2.58.59-1.7,1.05-3A40.78,40.78,0,0,1,578.81,737.62ZM567,679.92a70.82,70.82,0,0,1,22.16-7.23,20.32,20.32,0,0,1,7.79.27,5.52,5.52,0,0,1,2.73,1.3,7.71,7.71,0,0,1-1,1.29,42.07,42.07,0,0,1-11,6.82c-1.11.45-2.22.85-3.33,1.29a20.09,20.09,0,0,1-9.14,1.56c-2.88-.23-5.85-.07-8.82-1.1-.34-1-.65-2-1-3.06A18.51,18.51,0,0,1,567,679.92Zm-28.19,2.83c4.1-5,7.83-10.29,12.17-15.09a8,8,0,0,1,2.62-2.36,12,12,0,0,1,1.19,1.1c9,10.9,13,24.47,13.42,40a49.33,49.33,0,0,1-.39,6.83,112.68,112.68,0,0,1-4.89,22.52,95.93,95.93,0,0,1-10.83,22.21,42.64,42.64,0,0,1-4.09,4.72,30.94,30.94,0,0,1-6-2.68c.43-1.27.79-2.44,1.21-3.59a102,102,0,0,0,4.09-13.94,27.43,27.43,0,0,0,.75-6.69,12.28,12.28,0,0,0-1,2.87c-1.39,5.77-2.81,11.53-4.76,17.23a21.34,21.34,0,0,1-1.62,3.89c-1.33-.07-2.6-.18-3.9-.2s-2.64.06-4.16.11a7.79,7.79,0,0,1-.19-1.71c.26-2.61.57-5.23.9-7.85.47-3.81,1-7.64,1.44-11.45.13-1.14.52-2.37,0-3.39a6.64,6.64,0,0,0-.88,3.13c-.82,6.22-1.59,12.43-2.37,18.65-.11.86-.16,1.72-.26,2.75l-7.17,2.59c-.26-.2-.46-.28-.55-.44-3.5-5.8-5.89-12.1-5.61-19.76a98.43,98.43,0,0,1,4.32-24.81,154.24,154.24,0,0,1,10.9-25.86A48.1,48.1,0,0,1,538.77,682.75Zm-16.34,27.34a8.26,8.26,0,0,1-.21,1.38c-.29.84-.65,1.67-1,2.44a25.54,25.54,0,0,1-9.9-.14Zm-14.14,6.37a70.07,70.07,0,0,1,11.6,1.2,21.37,21.37,0,0,1-1.42,5.23l-11.66-6.15A11.67,11.67,0,0,1,508.29,716.46Zm-7.91-.27a9.88,9.88,0,0,0,2.36,1.07c4.92,1.58,9.22,4.28,13.7,6.67a17.36,17.36,0,0,1,1.49,1,13.44,13.44,0,0,1-.14,1.88,86.45,86.45,0,0,0-1.93,16.95,7.65,7.65,0,0,1-.25,1.27c-2.17-2.84-4.09-5.38-6-7.89-2.19-2.83-4.42-5.62-6.6-8.45a122.38,122.38,0,0,0-13-14.27c-.34-.32-.63-.67-1.05-1.12a2.25,2.25,0,0,1,2.15-.31C494.3,713.8,497.6,714.4,500.38,716.19Zm7.37-35.89a12.55,12.55,0,0,1,3.38,5.09,13.88,13.88,0,0,1,.15,9.13,25.08,25.08,0,0,1-5.46,10.22,15.05,15.05,0,0,1-7,4.36c-3,.82-5.72.48-7.9-1.38a26.32,26.32,0,0,1-8.3-11.85c-1.51-4.52-3-9-4.41-13.61a63.13,63.13,0,0,1-1.55-7,18.55,18.55,0,0,1-.1-6.36l.89-.52c1.3.09,1.86,1.09,2.4,2,1.12,1.84,2.09,3.79,3.1,5.72.45.88.81,1.82,1.26,2.71.1.19.37.27.69.48-.28-3.68-2.18-7.4-5.83-11.65,0-.95.69-1.34,1.6-1.81,3.53,1.85,6.63,4.6,10.49,6.17s7.52,3.45,11.87,4.27C504.53,677.58,506.18,678.9,507.75,680.3Zm-9.48-33c7.07-1.6,14-2.1,20.43,0,4.38,1.39,8,3.72,10.3,7.86a21.36,21.36,0,0,1,1.85,4.42c1.08,3.74-.11,7.2-3.11,10.33a14.89,14.89,0,0,1-9.13,4.9,26.51,26.51,0,0,1-4.26.15c-2.21-.08-4.4-.28-6.59-.46a16.18,16.18,0,0,1-6.6-2c-4.19-2.3-8.62-4.21-13-6.3q-2.2-1.05-4.37-2.18a10,10,0,0,1-1.26-.93c.38-1.28.67-2.24,1-3.3,3.09-2.17,6.67-2.43,9.76-4.43-.08-.69-.55-.57-.92-.44-2.22.84-4.44,1.71-6.65,2.59-.8.31-1.59.67-2.47,1-.26-.62-.49-1.14-.77-1.8.54-.43,1-.78,1.41-1.08,2.31-1.61,4.62-3.22,6.95-4.8A21.82,21.82,0,0,1,498.27,647.27Zm-40.86-5.72a18.17,18.17,0,0,1,2.51-9.93,35.09,35.09,0,0,1,6-8c5.51-5.35,11.51-7.61,18.05-6.45a26.21,26.21,0,0,1,10.8,4.68c3.87,2.77,5.12,7,3.88,12.36a32.09,32.09,0,0,1-3.27,8.57,21.12,21.12,0,0,1-6.88,7.56l-7.23,4.69a36.22,36.22,0,0,0-4.34-2,37,37,0,0,0-4.66-.87c-.44-1.35-.05-2.81-.1-4.17s0-2.58.07-3.88.46-2.79.17-4.29a3.72,3.72,0,0,0-1.35,2.83c-.16,1.62-.18,3.24-.2,4.86,0,1.38,0,2.75.07,4.24l-9.34,1.52a3.47,3.47,0,0,1-.79-.76A22,22,0,0,1,457.41,641.55ZM422.15,645a34.92,34.92,0,0,1,22.13-3.33,13.07,13.07,0,0,1,6.59,3.4c1.41,1.3,2.7,2.74,4.06,4.09s2.77,2.64,4.14,4a8.43,8.43,0,0,1,.73,1l-5.48,5.07a27.62,27.62,0,0,0-13.53,2.86,3.3,3.3,0,0,0,2.23.06c.93-.23,1.85-.42,2.78-.62s1.65-.37,2.47-.5,1.85-.3,2.77-.37,1.6,0,2.59,0a25.84,25.84,0,0,0-.07,2.88,23,23,0,0,0,.6,2.89c-.89.68-1.73,1.44-2.65,2a34.52,34.52,0,0,0-4.8,3.78,16.9,16.9,0,0,1-3.27,2.37,35.07,35.07,0,0,1-13.07,4.27,39.77,39.77,0,0,1-12.05-.27,11.86,11.86,0,0,1-6.57-3.42c-4.1-4.41-4.46-10.09-2-16.57A24.27,24.27,0,0,1,422.15,645Zm-15.6,29.33a109,109,0,0,1-3.06-10.58c-2.76-12.18-.85-24.61,4.8-37.19a163.7,163.7,0,0,0,7-17.12,2.71,2.71,0,0,1,.45-.59c.17.24.41.42.47.68,1.76,7.68,2.91,15.51,1.59,24A68.56,68.56,0,0,1,413,649a16.32,16.32,0,0,1-1.81,2.93,27.67,27.67,0,0,0-3.92,8c-1.81,6-1.38,11.3,1.86,15.67,1.24,1.68,1.42,3.92,2.34,5.76A13.62,13.62,0,0,1,406.55,674.34Zm6.62,5c9.17,2.94,18.64,2.05,28.62-2.12-2.28,3.45-4.7,6.68-6.44,10.32s-2.16,7.29-2.7,11C426.1,697.52,416.16,687.47,413.17,679.31Zm-24.29,2.59c5.27,1.91,10.55,3.81,15.78,5.81,3.07,1.17,6,2.53,9.08,3.76a102.47,102.47,0,0,1,18.89,10.36c.11,1.07.21,2.11.34,3.15a13.68,13.68,0,0,0,6.2,10.32c1,.69,2.16,1.24,3.23,1.88.48.28.94.62,1.48,1l-1.35,2.32a3.35,3.35,0,0,1-1.06.18,51.44,51.44,0,0,1-7.3-2.77,32.7,32.7,0,0,0-3.63-7.52,22.28,22.28,0,0,0-4.16-4.8,11.85,11.85,0,0,0-4.52-2.45,24,24,0,0,0-14.08,0c-.61.19-1.23.34-2.08.58a153,153,0,0,1-17.1-11.3c-.33-3.65-.62-6.9-.93-10.36A3.38,3.38,0,0,1,388.88,681.9Zm-17.42-4.34a86.08,86.08,0,0,1,13.78,3.34,23.52,23.52,0,0,1,1.51,9.79c-.18,0-.44.11-.54,0q-7.57-6.26-15.11-12.55Zm-6.52-1.2,9.81,8.09c-2.38.09-4.06-.55-5.86-.61-2-.07-4-.17-6-.1s-3.87.31-5.68.47c-1.63-1.94-3.18-3.77-4.71-5.62s-4.21-2.18-6.33-3.69c.3,0,.6-.06.89-.06A90.19,90.19,0,0,1,364.94,676.36Zm-6.59-17.75c.8-1.26,1.52-2.57,2.47-4.21.46.47.78.62.81.85a17.72,17.72,0,0,1,.16,2.53,34.18,34.18,0,0,0,1.54,10.82,9.1,9.1,0,0,1,.25,1.2c0,.09-.07.21-.11.32a33.89,33.89,0,0,1-7.74-7.61C356.58,661.25,357.51,660,358.35,658.61Zm-3.66,7.51c2.32,2.39,5,4.37,7.14,7-.32.16-.54.35-.7.33-5.55-.74-11.29-.61-17-1a36.82,36.82,0,0,0,9.12-7.11A5.94,5.94,0,0,1,354.69,666.12Zm-12.11-.59a65.87,65.87,0,0,1,10.69-10.62c1.52-1.16,2.93-2.52,4.42-3.74.49-.41.95-1.08,1.82-.78a5.22,5.22,0,0,1-.15,1.45,42.46,42.46,0,0,1-2.08,4.68,45.4,45.4,0,0,1-6.39,8.57,21.74,21.74,0,0,1-6.5,4.77A18,18,0,0,1,340,671.8,11.4,11.4,0,0,1,342.58,665.53Zm4.08-8c-1.92,2.2-3.78,4.33-5.8,6.66-.63-1.42-.4-2.87-.64-4.16s-.4-2.46-.71-3.64-.78-2.45-1.29-4C342.37,652.5,344.79,654.45,346.66,657.54Zm-19.41-22.13c3.39,3.42,11.9,13.61,12.8,15.41l-3.36-.71c-2.21-3.28-5-6-9.06-6.27a60.26,60.26,0,0,0-4.8-5.79,53.29,53.29,0,0,0-5.61-4.17C319.46,633.49,320.32,633.62,327.25,635.41Zm-47,6.63a14.29,14.29,0,0,1,8.75-8.67c3.49-1.25,6.94-2.07,10.37-1.56a73.18,73.18,0,0,1,17,4.22,18.14,18.14,0,0,1,7.82,6.15c1,1.34,1,1.38,1.31,3.9,3.09,3.3,3.71,8.19,4.64,13.36a5.2,5.2,0,0,1-1.95-1.56,45.14,45.14,0,0,0-14.05-10.3,27.33,27.33,0,0,0-9.87-2.57,8.38,8.38,0,0,0-1.36.25,14,14,0,0,0,2.81,1c10.25,2.49,18.38,8.18,25.11,16,.4.47,1.05.89.47,2a42.8,42.8,0,0,0-24-9.45l1.76,1.09c-.92.58-1.77.24-2.62.19a59.21,59.21,0,0,0-13.43.75,38,38,0,0,0-13.34,4.59,15.46,15.46,0,0,1-1.44.67,12.52,12.52,0,0,1-4-4.61c-1.54-2.9-1-5.26,1.81-7.85,1-.93,2.07-1.78,3-2.56C280.48,645.46,280,643.82,280.22,642ZM267.1,656.57a6.34,6.34,0,0,1,4.23-4.25c-.45,2.69-.5,5,.62,6.79s2.28,3.32,3.47,5c-1.52,1.71-3.17,3.31-4.5,5.14a62,62,0,0,0-3.34,5.64,46.06,46.06,0,0,0-4.32,2.45c-1.36,1-2.57,2.19-3.85,3.29-2.37-2.72-2.41-5.7-.05-8.9,1.29-1.77,2.7-3.45,4.09-5.14a12.05,12.05,0,0,0,2.83-6.45A17.48,17.48,0,0,1,267.1,656.57ZM257.87,670c-1.26.07-2,.15-2.63.14a30.81,30.81,0,0,0-10.73,2c-2.64,1-5.29,1.8-7.94,2.72a49.59,49.59,0,0,1-13.83,2.83,197.23,197.23,0,0,0-23.37,2.74c-2.46.42-4.92.65-7.38.9a14.26,14.26,0,0,1-2.21-.09,1,1,0,0,1,.54-1.25,57.62,57.62,0,0,1,5.28-2.74c2.81-1.17,5.65-2.26,8.51-3.16A160.5,160.5,0,0,1,239.49,667a69.34,69.34,0,0,1,10.89.12A12.27,12.27,0,0,1,257.87,670Zm-21.09-22.8a100.75,100.75,0,0,1-9.45-17.39c-5.86-14.24-8.79-29.66-9.71-45.92-.39-6.85.53-13.83,1.61-20.83,0-.06.13-.13.38-.37.19.6.41,1.12.54,1.67A94.79,94.79,0,0,1,222.82,582c.22,5.44.31,10.91.44,16.36,0,2,0,4.08,0,6.12a44.38,44.38,0,0,0,1.91,12.33c2.74,9.45,6.86,18,10.85,26.73.58,1.26,1.17,2.51,1.74,3.74C237.17,647.89,237,647.48,236.78,647.22Zm-8.61,2.23c.31.16.48.54.89,1-.73.28-1.19.51-1.66.64-2.36.64-4.72,1.2-7.08,1.88-5.91,1.68-11.71,2.43-17.32,1.26-3.84-.81-7.68-1.62-11.54-2.37-4.73-.91-9.48-1.78-14.23-2.64-2.9-.53-5.84-1-8.73-1.54a28.7,28.7,0,0,1-3-.9l.07-.69a18.51,18.51,0,0,1,2-.75c3.49-.79,7-1.65,10.48-2.26a82.46,82.46,0,0,1,39.62,2.29c2.13.67,4.3,1.27,6.38,2.05A33.49,33.49,0,0,1,228.17,649.45Zm-23.65-29.78a1.32,1.32,0,0,1,1,1.21C205.2,620.48,204.86,620.07,204.52,619.67Zm.11-2.76c-6.71-12.25-11.07-25.64-11.39-40.93-.15-7-.11-13.94-.13-20.92,0-1.69.11-3.4.18-5.46.47.4.75.51.85.74a142.25,142.25,0,0,1,7.9,23.91,75.68,75.68,0,0,1,1.78,15.31,94.63,94.63,0,0,0,1,14.26c.37,2.26.8,4.5,1.33,6.69.87,3.59,1.86,7.13,2.77,10.71.13.54.6,1,0,1.9-.37-.46-.76-.85-1.06-1.31C206.74,620.19,205.58,618.63,204.63,616.91Zm-13.42-4.67c-1.22.07-2.43,0-3.65.1-5.2.58-10.05-.35-14.89-1.2a25.88,25.88,0,0,1-6.59-2.23A96.26,96.26,0,0,1,152,600.65a82.12,82.12,0,0,0-7.46-4.31c-1.41-.79-2.86-1.51-4.71-2.49a5.57,5.57,0,0,1,3.83-.84,84,84,0,0,1,8.6.91c7,1.31,13.78,3.06,20,6.21,2.74,1.39,5.65,2.48,8.34,4,3.52,1.93,6.92,4.09,10.34,6.2a13.33,13.33,0,0,1,1.74,1.46C192.16,612.48,191.64,612.21,191.21,612.24Zm-11.44-28.19c-.45.21-.33-.08-.29-.3Zm-22.6-54.66a94,94,0,0,1,8.44,17.37c2.06,5.8,4.24,11.53,6,17.49s4.38,11.21,6.88,16.63c.39.85,1.08,1.58.92,2.72a17.81,17.81,0,0,1-2.07-1.8,76.12,76.12,0,0,1-12.22-18.88,114.48,114.48,0,0,1-8.41-27,36.2,36.2,0,0,1-.64-7.34C156.66,529,157,529.13,157.17,529.39Z"/><path d="M325.65,839.23l.06-.06-.07,0Z"/><path d="M497.27,845.1l-.06,0,.07,0Z"/><path d="M304.25,669.11l.05,0-.06-.05Z"/><path d="M341.1,776.13l.08-.09-.1,0Z"/><path d="M473.6,863.15c0-.06,0-.12,0-.18l-.09.2Z"/><path d="M349.71,785.36a1.71,1.71,0,0,0,.11-.14l-.13.08Z"/><path d="M317.32,719.76l.08-.09-.09,0Z"/><path d="M534.78,735.18s0,0,0,.05l.05-.07Z"/></svg>